<?xml version="1.0" encoding="UTF-8" standalone="no"?>
<svg
   xmlns:dc="http://purl.org/dc/elements/1.1/"
   xmlns:cc="http://creativecommons.org/ns#"
   xmlns:rdf="http://www.w3.org/1999/02/22-rdf-syntax-ns#"
   xmlns:svg="http://www.w3.org/2000/svg"
   xmlns="http://www.w3.org/2000/svg"
   viewBox="0 0 282.13385 168.84987"
   height="168.84987"
   width="282.13385"
   xml:space="preserve"
   id="svg2"
   version="1.1"><metadata
     id="metadata8"><rdf:RDF><cc:Work
         rdf:about=""><dc:format>image/svg+xml</dc:format><dc:type
           rdf:resource="http://purl.org/dc/dcmitype/StillImage" /><dc:title></dc:title></cc:Work></rdf:RDF></metadata><defs
     id="defs6"><clipPath
       id="clipPath22"
       clipPathUnits="userSpaceOnUse"><path
         id="path20"
         d="M 0,595.28 H 841.89 V 0 H 0 Z" /></clipPath></defs><g
     transform="matrix(1.3333333,0,0,-1.3333333,-420.02772,481.94065)"
     id="g10"><g
       id="g16"><g
         clip-path="url(#clipPath22)"
         id="g18"><g
           transform="translate(420.8208,251.1895)"
           id="g24"><path
             id="path26"
             style="fill:#289ee0;fill-opacity:1;fill-rule:evenodd;stroke:none"
             d="m 0,0 c 12.775,11.535 20.837,28.279 20.837,46.885 0,18.605 -8.062,35.349 -20.837,47.009 -11.163,10.17 -26.047,16.372 -42.419,16.372 -34.978,0 -63.381,-28.404 -63.381,-63.381 0,-34.977 28.403,-63.256 63.381,-63.256 16.372,0 31.256,6.201 42.419,16.371" /></g><g
           transform="translate(420.8208,251.1895)"
           id="g28"><path
             id="path30"
             style="fill:#289ee0;fill-opacity:1;fill-rule:evenodd;stroke:none"
             d="M 0,0 C 12.775,11.535 20.837,28.279 20.837,46.885 20.837,65.49 12.775,82.234 0,93.894 Z" /></g><g
           transform="translate(463.3652,361.4551)"
           id="g32"><path
             id="path34"
             style="fill:#ed192d;fill-opacity:1;fill-rule:evenodd;stroke:none"
             d="m 0,0 c -16.373,0 -31.258,-6.202 -42.544,-16.372 -2.233,-2.108 -4.342,-4.341 -6.326,-6.698 h 12.774 c 1.737,-2.108 3.35,-4.465 4.838,-6.698 h -22.449 c -1.365,-2.232 -2.606,-4.464 -3.721,-6.698 h 29.768 c 0.992,-2.232 1.985,-4.465 2.728,-6.697 h -35.101 c -0.744,-2.233 -1.364,-4.465 -1.861,-6.822 h 38.824 c 0.868,-4.218 1.363,-8.807 1.363,-13.396 0,-6.945 -1.117,-13.767 -3.225,-20.093 h -35.101 c 0.744,-2.233 1.613,-4.465 2.605,-6.698 h 29.768 c -1.116,-2.232 -2.233,-4.588 -3.598,-6.697 h -22.449 c 1.488,-2.358 3.101,-4.59 4.837,-6.697 h 12.774 c -1.982,-2.358 -4.092,-4.59 -6.448,-6.7 11.286,-10.17 26.171,-16.371 42.544,-16.371 34.977,0 63.256,28.28 63.256,63.256 C 63.256,-28.403 34.977,0 0,0" /></g><g
           transform="translate(520.2949,262.9727)"
           id="g36"><path
             id="path38"
             style="fill:#ed192d;fill-opacity:1;fill-rule:evenodd;stroke:none"
             d="m 0,0 h 0.25 0.248 c 0,0 0.123,0.125 0.123,0.25 L 0.498,0.371 C 0.371,0.496 0.25,0.496 0.25,0.496 H 0 Z M 0,-0.992 H -0.496 V 0.744 H 0.25 c 0.248,0 0.371,0 0.496,-0.123 0.123,0 0.246,-0.25 0.246,-0.371 C 0.992,0 0.869,-0.123 0.746,-0.248 L 0.992,-0.992 H 0.498 L 0.25,-0.371 H 0 Z m 0.25,-0.744 c 0.867,0 1.609,0.744 1.609,1.613 0,0.867 -0.742,1.488 -1.609,1.488 -0.869,0 -1.615,-0.621 -1.615,-1.488 0,-0.869 0.746,-1.613 1.615,-1.613 m -1.986,1.613 c 0,1.115 0.869,1.982 1.986,1.982 1.115,0 1.984,-0.867 1.984,-1.982 0,-1.117 -0.869,-2.109 -1.984,-2.109 -1.117,0 -1.986,0.992 -1.986,2.109" /></g><g
           transform="translate(368.4785,280.4609)"
           id="g40"><path
             id="path42"
             style="fill:#16326c;fill-opacity:1;fill-rule:evenodd;stroke:none"
             d="M 0,0 H -7.938 L -3.225,24.683 -14.016,0 h -6.697 L -22.078,24.56 -27.287,0 h -7.193 l 6.077,32.125 h 12.528 l 0.123,-19.846 8.683,19.846 H 6.202 Z" /></g><g
           transform="translate(456.543,280.834)"
           id="g44"><path
             id="path46"
             style="fill:#16326c;fill-opacity:1;fill-rule:evenodd;stroke:none"
             d="m 0,0 c -2.234,-0.621 -3.844,-0.867 -5.707,-0.867 -3.969,0 -6.199,1.982 -6.199,5.704 0,0.744 0.123,1.612 0.248,2.356 l 0.494,2.605 0.371,1.985 3.599,19.969 H 0.619 L -0.498,25.799 H 3.473 L 2.479,19.473 H -1.613 L -3.721,8.559 c 0,-0.496 -0.123,-0.87 -0.123,-1.118 0,-1.363 0.867,-1.86 2.727,-1.86 0.869,0 1.613,0 2.107,0.249 z" /></g><g
           transform="translate(425.2871,298.3218)"
           id="g48"><path
             id="path50"
             style="fill:#16326c;fill-opacity:1;fill-rule:evenodd;stroke:none"
             d="m 0,0 c 0,-3.224 1.859,-5.582 5.952,-7.193 3.35,-1.364 3.847,-1.736 3.847,-2.977 0,-1.613 -1.49,-2.357 -4.59,-2.357 -2.481,0 -4.59,0.373 -7.193,1.117 l -1.118,-6.078 h 0.372 l 1.488,-0.248 c 0.497,-0.125 1.117,-0.248 2.11,-0.248 1.86,-0.125 3.347,-0.248 4.341,-0.248 8.434,0 12.278,2.729 12.278,8.683 0,3.596 -1.611,5.704 -5.581,7.317 -3.349,1.24 -3.72,1.613 -3.72,2.853 0,1.364 1.365,2.108 3.843,2.108 1.614,0 3.721,-0.124 5.832,-0.372 l 1.114,5.954 C 16.867,8.683 13.766,8.931 11.906,8.931 2.977,8.931 -0.125,4.837 0,0" /></g><g
           transform="translate(388.6963,292.1211)"
           id="g52"><path
             id="path54"
             style="fill:#16326c;fill-opacity:1;fill-rule:evenodd;stroke:none"
             d="m 0,0 c -0.868,0.124 -1.24,0.124 -1.861,0.124 -4.465,0 -6.698,-1.364 -6.698,-3.97 0,-1.611 1.117,-2.604 2.853,-2.604 3.225,0 5.582,2.604 5.706,6.45 M 5.333,-11.66 H -1.24 l 0.124,2.729 c -1.985,-2.108 -4.714,-3.1 -8.311,-3.1 -4.217,0 -7.194,2.851 -7.194,7.068 0,6.326 5.086,10.048 13.892,10.048 0.868,0 1.985,0 3.225,-0.124 0.248,0.868 0.248,1.24 0.248,1.612 0,1.737 -1.364,2.481 -5.085,2.481 -2.233,0 -4.713,-0.372 -6.45,-0.744 l -1.116,-0.372 -0.745,-0.124 1.117,5.83 c 3.969,1.115 6.574,1.487 9.427,1.487 6.821,0 10.418,-2.728 10.418,-7.689 0,-1.365 -0.123,-2.233 -0.744,-5.21 L 5.953,-6.945 5.706,-8.684 5.457,-10.047 5.333,-10.916 Z" /></g><g
           transform="translate(416.1074,296.5859)"
           id="g56"><path
             id="path58"
             style="fill:#16326c;fill-opacity:1;fill-rule:evenodd;stroke:none"
             d="M 0,0 V 1.364 C 0,3.473 -1.364,4.713 -3.721,4.713 -6.202,4.713 -8.062,3.101 -8.806,0 Z m 3.721,-15.504 c -2.605,-0.744 -5.209,-1.115 -8.062,-1.115 -8.806,0 -13.396,4.092 -13.396,11.781 0,8.931 5.83,15.505 13.768,15.505 6.574,0 10.666,-3.721 10.666,-9.427 0,-1.985 -0.248,-3.844 -0.99,-6.449 H -9.922 c -0.124,-0.496 -0.124,-0.621 -0.124,-0.868 0,-2.978 2.356,-4.589 6.945,-4.589 2.853,0 5.334,0.495 8.186,1.736 z" /></g><g
           transform="translate(495.9863,295.4697)"
           id="g60"><path
             id="path62"
             style="fill:#16326c;fill-opacity:1;fill-rule:evenodd;stroke:none"
             d="m 0,0 c 0,2.729 -1.117,5.333 -4.342,5.333 -3.969,0 -6.574,-4.838 -6.574,-8.93 0,-3.597 1.736,-5.953 4.59,-5.953 1.736,0 5.332,2.356 6.078,6.449 C -0.127,-2.231 0,-1.116 0,0 M 7.936,-3.101 C 6.82,-11.784 0.742,-15.628 -7.32,-15.628 c -8.93,0 -12.526,5.334 -12.526,12.031 0,9.179 6.076,15.504 15.504,15.504 8.186,0 12.528,-5.209 12.528,-11.783 0,-1.612 0,-1.736 -0.25,-3.225" /></g><g
           transform="translate(506.6523,284.5547)"
           id="g64"><path
             id="path66"
             style="fill:#ffffff;fill-opacity:1;fill-rule:evenodd;stroke:none"
             d="M 0,0 H 0.248 0.494 V 0.248 0.372 H 0.123 0 Z m 0,-0.992 h -0.496 v 1.736 h 0.744 c 0.246,0 0.373,0 0.494,-0.123 C 0.869,0.496 0.992,0.372 0.992,0.248 0.992,0 0.869,-0.248 0.621,-0.248 L 0.992,-0.992 H 0.494 L 0.248,-0.371 H 0 Z m 0.248,-0.744 c 0.869,0 1.488,0.744 1.488,1.613 0,0.867 -0.619,1.488 -1.488,1.488 -0.867,0 -1.613,-0.621 -1.613,-1.488 0,-0.869 0.746,-1.613 1.613,-1.613 m -2.109,1.613 c 0,1.115 0.994,1.983 2.109,1.983 1.115,0 1.982,-0.868 1.982,-1.983 0,-1.117 -0.867,-2.109 -1.982,-2.109 -1.115,0 -2.109,0.992 -2.109,2.109" /></g><g
           transform="translate(370.4634,282.3223)"
           id="g68"><path
             id="path70"
             style="fill:#ffffff;fill-opacity:1;fill-rule:evenodd;stroke:none"
             d="M 0,0 H -7.938 L -3.225,24.683 -14.016,0 h -7.193 L -22.45,24.558 -27.163,0 h -7.194 l 6.077,32.125 h 12.404 l 0.62,-19.846 8.682,19.846 H 6.202 Z" /></g><g
           transform="translate(458.5273,282.6934)"
           id="g72"><path
             id="path74"
             style="fill:#ffffff;fill-opacity:1;fill-rule:evenodd;stroke:none"
             d="m 0,0 c -2.232,-0.619 -3.848,-0.867 -5.705,-0.867 -3.971,0 -6.201,1.984 -6.201,5.705 0,0.744 0.123,1.488 0.246,2.356 l 0.496,2.605 0.371,1.984 3.6,19.97 H 0.619 L -0.496,25.8 H 3.596 L 2.482,19.474 H -1.613 L -3.598,8.56 c -0.123,-0.497 -0.25,-0.869 -0.25,-1.117 0,-1.364 0.869,-1.985 2.731,-1.985 0.869,0 1.611,0.124 2.107,0.249 z" /></g><g
           transform="translate(478.7441,300.9272)"
           id="g76"><path
             id="path78"
             style="fill:#16326c;fill-opacity:1;fill-rule:evenodd;stroke:none"
             d="m 0,0 -0.123,0.868 1.488,4.093 c -0.373,0 -0.496,0 -0.619,0.124 -0.375,0 -0.623,0.124 -0.623,0.124 h -0.742 c -2.606,0 -4.467,-1.116 -6.945,-4.217 l 0.867,4.714 h -8.188 l -4.838,-26.172 h 7.817 c 1.115,6.078 1.611,9.426 2.23,12.279 0.994,4.714 4.467,6.823 7.072,6.327 0.249,0 0.497,0 0.868,-0.125 l 0.498,-0.248 z" /></g><g
           transform="translate(481.4727,308.2451)"
           id="g80"><path
             id="path82"
             style="fill:#ffffff;fill-opacity:1;fill-rule:evenodd;stroke:none"
             d="M 0,0 C -0.621,0.248 -0.744,0.248 -0.869,0.248 -1.24,0.372 -1.488,0.372 -1.488,0.496 h -0.869 c -2.604,0 -4.463,-1.117 -6.821,-4.217 l 0.744,3.969 h -7.195 l -4.834,-26.171 h 7.936 c 2.853,16 3.97,18.853 7.814,18.853 0.248,0 0.619,-0.124 0.99,-0.124 l 0.871,-0.248 z" /></g><g
           transform="translate(427.2695,300.1831)"
           id="g84"><path
             id="path86"
             style="fill:#ffffff;fill-opacity:1;fill-rule:evenodd;stroke:none"
             d="m 0,0 c 0,-3.226 1.861,-5.582 6.08,-7.194 3.225,-1.365 3.719,-1.736 3.719,-2.977 0,-1.612 -1.488,-2.356 -4.59,-2.356 -2.355,0 -4.587,0.371 -7.191,1.116 l -0.995,-6.079 h 0.372 l 1.365,-0.371 c 0.498,0 1.24,-0.124 2.108,-0.124 1.862,-0.249 3.35,-0.249 4.466,-0.249 8.312,0 12.281,2.73 12.281,8.683 0,3.596 -1.613,5.706 -5.707,7.318 -3.349,1.241 -3.72,1.613 -3.72,2.853 0,1.364 1.365,2.109 3.969,2.109 1.489,0 3.722,-0.125 5.704,-0.373 L 18.978,8.31 C 16.869,8.682 13.768,8.807 12.031,8.807 3.102,8.807 0,4.837 0,0" /></g><g
           transform="translate(390.3086,293.9814)"
           id="g88"><path
             id="path90"
             style="fill:#ffffff;fill-opacity:1;fill-rule:evenodd;stroke:none"
             d="m 0,0 c -0.868,0.124 -1.24,0.124 -1.736,0.124 -4.466,0 -6.699,-1.365 -6.699,-3.969 0,-1.613 0.993,-2.729 2.729,-2.729 3.226,0 5.581,2.729 5.706,6.574 m 5.706,-11.659 h -6.45 l 0.124,2.728 c -1.985,-2.109 -4.713,-3.101 -8.311,-3.101 -4.216,0 -7.193,2.853 -7.193,7.07 0,6.326 5.085,10.047 13.892,10.047 0.867,0 1.984,0 3.224,-0.124 0.249,0.868 0.249,1.241 0.249,1.613 0,1.736 -1.366,2.356 -5.086,2.356 -2.233,0 -4.713,-0.248 -6.449,-0.62 l -1.117,-0.372 -0.744,-0.124 1.116,5.829 c 3.969,0.992 6.45,1.365 9.427,1.365 6.821,0 10.294,-2.605 10.294,-7.566 0,-1.364 -0.123,-2.357 -0.62,-5.211 L 6.45,-7.069 6.202,-8.683 5.954,-10.047 5.83,-10.915 Z" /></g><g
           transform="translate(417.7197,298.4463)"
           id="g92"><path
             id="path94"
             style="fill:#ffffff;fill-opacity:1;fill-rule:evenodd;stroke:none"
             d="M 0,0 V 1.364 C 0,3.473 -1.364,4.713 -3.721,4.713 -6.202,4.713 -7.938,2.977 -8.682,0 Z m 4.218,-15.505 c -2.729,-0.743 -5.334,-1.115 -8.063,-1.115 -8.806,0 -13.396,4.094 -13.396,11.783 0,8.93 5.83,15.504 13.769,15.504 6.449,0 10.542,-3.721 10.542,-9.426 0,-1.985 -0.248,-3.846 -0.868,-6.449 H -9.55 v -0.869 c 0,-2.977 2.232,-4.59 6.822,-4.59 2.852,0 5.457,0.496 8.185,1.613 z" /></g><g
           transform="translate(497.8457,297.5776)"
           id="g96"><path
             id="path98"
             style="fill:#ffffff;fill-opacity:1;fill-rule:evenodd;stroke:none"
             d="m 0,0 c 0,2.729 -1.117,5.209 -4.342,5.209 -3.969,0 -6.449,-4.712 -6.449,-8.929 0,-3.473 1.736,-5.83 4.465,-5.83 1.736,0 5.457,2.357 6.078,6.326 C 0,-2.232 0,-1.116 0,0 m 8.188,-3.349 c -1.243,-8.682 -7.321,-12.526 -15.383,-12.526 -8.805,0 -12.403,5.333 -12.403,12.031 0,9.178 6.077,15.504 15.504,15.504 8.186,0 12.528,-5.209 12.528,-11.783 0,-1.614 0,-1.736 -0.246,-3.226" /></g></g></g></g></svg>