<?xml version="1.0" encoding="UTF-8" standalone="no"?>
<svg
   xmlns:dc="http://purl.org/dc/elements/1.1/"
   xmlns:cc="http://creativecommons.org/ns#"
   xmlns:rdf="http://www.w3.org/1999/02/22-rdf-syntax-ns#"
   xmlns:svg="http://www.w3.org/2000/svg"
   xmlns="http://www.w3.org/2000/svg"
   id="svg221"
   version="1.1"
   viewBox="0 0 66.000198 39.502571"
   height="39.502571mm"
   width="66.000198mm">
  <defs
     id="defs215" />
  <metadata
     id="metadata218">
    <rdf:RDF>
      <cc:Work
         rdf:about="">
        <dc:format>image/svg+xml</dc:format>
        <dc:type
           rdf:resource="http://purl.org/dc/dcmitype/StillImage" />
        <dc:title></dc:title>
      </cc:Work>
    </rdf:RDF>
  </metadata>
  <g
     transform="translate(-143.89273,-225.84399)"
     id="layer1">
    <path
       d="m 190.10491,265.34656 1.01918,-0.0268 1.00612,-0.073 0.98637,-0.1263 0.97931,-0.17356 0.9525,-0.21978 0.9398,-0.2667 0.91934,-0.31292 0.89958,-0.35313 0.87912,-0.39969 0.85302,-0.43322 0.8262,-0.47977 0.8061,-0.51294 0.77258,-0.55281 0.74648,-0.58631 0.71967,-0.61983 0.68615,-0.65935 0.6597,-0.6865 0.61947,-0.71967 0.58632,-0.74612 0.5528,-0.77258 0.51294,-0.80645 0.48013,-0.82621 0.43286,-0.85267 0.3997,-0.87982 0.35313,-0.89888 0.31327,-0.92004 0.2667,-0.9391 0.21978,-0.95285 0.17321,-0.97931 0.12629,-0.98602 0.0734,-1.00612 0.0268,-1.01953 -0.0268,-1.01282 -0.0734,-0.99907 -0.12629,-0.98637 -0.17321,-0.9659 -0.21978,-0.95285 -0.2667,-0.93275 -0.31327,-0.91933 -0.35313,-0.89288 -0.3997,-0.87278 -0.43286,-0.85266 -0.48013,-0.8195 -0.51294,-0.80645 -0.5528,-0.77294 -0.58632,-0.73942 -0.61947,-0.71931 -0.6597,-0.68651 -0.68615,-0.65299 -0.71967,-0.61948 -0.74648,-0.58632 -0.77258,-0.55315 -0.8061,-0.51294 -0.8262,-0.47272 -0.85302,-0.43321 -0.87912,-0.3997 -0.89958,-0.35348 -0.91934,-0.31292 -0.9398,-0.2667 -0.9525,-0.21978 -0.97931,-0.17321 -0.98637,-0.12665 -1.00612,-0.073 -1.01918,-0.0268 -1.01282,0.0268 -1.00612,0.073 -0.98602,0.12665 -0.97296,0.17321 -0.9525,0.21978 -0.93945,0.2667 -0.91298,0.31292 -0.89924,0.35348 -0.87277,0.3997 -0.84631,0.43321 -0.82586,0.47272 -0.79974,0.51294 -0.77294,0.55315 -0.74612,0.58632 -0.71297,0.61948 -0.68615,0.65299 -0.65299,0.68651 -0.61948,0.71931 -0.58632,0.73942 -0.54645,0.77294 -0.51329,0.80645 -0.47272,0.8195 -0.43956,0.85266 -0.39335,0.87278 -0.35313,0.89288 -0.30621,0.91934 -0.2667,0.93274 -0.21978,0.95285 -0.17322,0.96591 -0.12664,0.98637 -0.0734,0.99906 -0.0268,1.01283 0.0268,1.01952 0.0734,1.00613 0.12664,0.98601 0.17322,0.97931 0.21978,0.95285 0.2667,0.9391 0.30621,0.92004 0.35313,0.89888 0.39335,0.87983 0.43956,0.85266 0.47272,0.82621 0.51329,0.80645 0.54645,0.77258 0.58632,0.74613 0.61948,0.71966 0.65299,0.68651 0.68615,0.65934 0.71297,0.61983 0.74612,0.58632 0.77294,0.5528 0.79974,0.51294 0.82586,0.47978 0.84631,0.43321 0.87277,0.39969 0.89924,0.35314 0.91298,0.31291 0.93945,0.2667 0.9525,0.21978 0.97296,0.17357 0.98602,0.12629 1.00612,0.073 1.01282,0.0268 v 0 0"
       style="fill:#f9ab1e;fill-opacity:1;fill-rule:evenodd;stroke:none;stroke-width:0.03527778"
       id="path16" />
    <path
       d="m 163.6808,265.34656 1.01282,-0.0268 1.00613,-0.073 0.98601,-0.1263 0.97261,-0.17356 0.95285,-0.21978 0.93945,-0.2667 0.91264,-0.31292 0.89958,-0.35313 0.87277,-0.39969 0.84596,-0.43322 0.82656,-0.47977 0.79939,-0.51294 0.77294,-0.55281 0.74612,-0.58631 0.71262,-0.61983 0.6865,-0.65935 0.65299,-0.6865 0.61948,-0.71967 0.58632,-0.74612 0.54645,-0.77258 0.51294,-0.80645 0.47308,-0.82621 0.43956,-0.85267 0.39299,-0.87982 0.35348,-0.89888 0.30622,-0.92004 0.26634,-0.9391 0.22013,-0.95285 0.17322,-0.97931 0.12665,-0.98602 0.0734,-1.00612 0.0265,-1.01953 -0.0265,-1.01282 -0.0734,-0.99907 -0.12665,-0.98636 -0.17322,-0.96591 -0.22013,-0.95285 -0.26634,-0.93274 -0.30622,-0.91934 -0.35348,-0.89288 -0.39299,-0.87278 -0.43956,-0.85266 -0.47308,-0.8195 -0.51294,-0.80645 -0.54645,-0.77294 -0.58632,-0.73942 -0.61948,-0.71931 -0.65299,-0.68651 -0.6865,-0.65299 -0.71262,-0.61948 -0.74612,-0.58632 -0.77294,-0.55315 -0.79939,-0.51294 -0.82656,-0.47272 -0.84596,-0.43321 -0.87277,-0.3997 -0.89958,-0.35348 -0.91264,-0.31292 -0.93945,-0.2667 -0.95285,-0.21978 -0.97261,-0.17321 -0.98601,-0.12665 -1.00613,-0.073 -1.01282,-0.0268 -1.01917,0.0268 -1.00613,0.073 -0.98636,0.12665 -0.97931,0.17321 -0.9525,0.21978 -0.93945,0.2667 -0.91969,0.31292 -0.89959,0.35348 -0.87912,0.3997 -0.85302,0.43321 -0.8262,0.47272 -0.8061,0.51294 -0.77293,0.55315 -0.74613,0.58632 -0.71967,0.61948 -0.68615,0.65299 -0.65969,0.68651 -0.61948,0.71931 -0.58632,0.73942 -0.55315,0.77294 -0.51294,0.80645 -0.47978,0.8195 -0.43321,0.85266 -0.39935,0.87278 -0.35313,0.89288 -0.31326,0.91934 -0.2667,0.93274 -0.21978,0.95285 -0.17322,0.96591 -0.12664,0.98637 -0.0734,0.99906 -0.0265,1.01283 0.0265,1.01952 0.0734,1.00613 0.12664,0.98601 0.17322,0.97931 0.21978,0.95285 0.2667,0.9391 0.31326,0.92004 0.35313,0.89888 0.39935,0.87983 0.43321,0.85266 0.47978,0.82621 0.51294,0.80645 0.55315,0.77258 0.58632,0.74613 0.61948,0.71966 0.65969,0.68651 0.68615,0.65934 0.71967,0.61983 0.74613,0.58632 0.77293,0.5528 0.8061,0.51294 0.8262,0.47978 0.85302,0.43321 0.87912,0.39969 0.89959,0.35314 0.91969,0.31291 0.93945,0.2667 0.9525,0.21978 0.97931,0.17357 0.98636,0.12629 1.00613,0.073 1.01917,0.0268 v 0 0"
       style="fill:#ed192d;fill-opacity:1;fill-rule:evenodd;stroke:none;stroke-width:0.03527778"
       id="path18" />
    <path
       d="m 174.58093,233.41946 h 10.49373 v -1.07279 h -9.5878 l -0.90593,1.07279 v 0 0"
       style="fill:#f9ab1e;fill-opacity:1;fill-rule:evenodd;stroke:none;stroke-width:0.03527778"
       id="path20" />
    <path
       d="m 173.0086,235.80459 h 12.06606 v -1.07279 h -11.43318 l -0.63288,1.07279 v 0 0"
       style="fill:#f9ab1e;fill-opacity:1;fill-rule:evenodd;stroke:none;stroke-width:0.03527778"
       id="path22" />
    <path
       d="m 171.83596,238.18302 h 13.2387 v -1.07279 h -12.77233 l -0.46637,1.07279 v 0 0"
       style="fill:#f9ab1e;fill-opacity:1;fill-rule:evenodd;stroke:none;stroke-width:0.03527778"
       id="path24" />
    <path
       d="m 171.02951,240.56815 h 14.04515 v -1.07244 h -13.71177 l -0.33338,1.07244 v 0 0"
       style="fill:#f9ab1e;fill-opacity:1;fill-rule:evenodd;stroke:none;stroke-width:0.03527778"
       id="path26" />
    <path
       d="m 171.49624,252.09481 h 13.61158 v -1.07279 h -13.94496 l 0.33338,1.07279 v 0 0"
       style="fill:#f9ab1e;fill-opacity:1;fill-rule:evenodd;stroke:none;stroke-width:0.03527778"
       id="path28" />
    <path
       d="m 172.50201,254.47994 h 12.60581 v -1.07279 h -13.10535 l 0.49954,1.07279 v 0 0"
       style="fill:#f9ab1e;fill-opacity:1;fill-rule:evenodd;stroke:none;stroke-width:0.03527778"
       id="path30" />
    <path
       d="m 173.91453,256.85872 h 11.19329 v -1.07279 h -11.86639 l 0.6731,1.07279 v 0 0"
       style="fill:#f9ab1e;fill-opacity:1;fill-rule:evenodd;stroke:none;stroke-width:0.03527778"
       id="path32" />
    <path
       d="m 175.8601,259.2435 h 9.24772 v -1.07914 h -10.18717 l 0.93945,1.07914 v 0 0"
       style="fill:#f9ab1e;fill-opacity:1;fill-rule:evenodd;stroke:none;stroke-width:0.03527778"
       id="path34" />
    <path
       d="m 170.55679,242.94693 h 14.51787 v -1.07279 h -14.31149 l -0.20638,1.07279 v 0 0"
       style="fill:#f9ab1e;fill-opacity:1;fill-rule:evenodd;stroke:none;stroke-width:0.03527778"
       id="path36" />
    <path
       d="m 179.40481,249.71639 h 5.5365 v -1.0728 h -5.33683 l -0.19967,1.0728 v 0 0"
       style="fill:#f9ab1e;fill-opacity:1;fill-rule:evenodd;stroke:none;stroke-width:0.03527778"
       id="path38" />
    <path
       d="m 179.84437,247.33761 h 5.09694 v -1.0795 h -4.89691 l -0.20003,1.0795 v 0 0"
       style="fill:#f9ab1e;fill-opacity:1;fill-rule:evenodd;stroke:none;stroke-width:0.03527778"
       id="path40" />
    <path
       d="m 170.19026,246.25811 h 1.43933 v 1.0795 h -1.37266 l -0.0667,-1.0795 v 0 0"
       style="fill:#f9ab1e;fill-opacity:1;fill-rule:evenodd;stroke:none;stroke-width:0.03527778"
       id="path42" />
    <path
       d="m 167.50526,244.95918 -0.0935,-0.007 -0.0931,-0.0134 -0.0868,-0.0134 -0.0864,-0.0134 -0.0801,-0.013 -0.0864,-0.0134 -0.0868,-0.0134 -0.0931,-0.0134 -0.0931,-0.013 -0.10689,-0.007 -0.11959,-0.006 -0.12665,-0.007 h -0.14005 l -0.15311,0.007 -0.17356,0.0134 -0.19297,0.013 -0.13335,0.0201 -0.12665,0.0201 -0.11324,0.0399 -0.0998,0.0399 -0.0935,0.0466 -0.0864,0.0533 -0.0667,0.067 -0.06,0.0596 -0.0399,0.0734 -0.0335,0.0734 -0.0134,0.0801 v 0.0801 l 0.0201,0.0861 0.0268,0.0868 0.0533,0.0868 0.0667,0.0864 0.133,0.12629 0.16016,0.10019 0.18626,0.0868 0.20003,0.0734 0.21308,0.0663 0.21978,0.0734 0.22013,0.0801 0.21308,0.0868 0.20002,0.11289 0.18662,0.14005 0.16651,0.16651 0.1397,0.20638 0.1069,0.25329 0.0667,0.30022 0.0265,0.35948 -0.0265,0.4198 -0.0469,0.31292 -0.0797,0.2734 -0.1069,0.25329 -0.13335,0.21979 -0.1531,0.19296 -0.17322,0.16652 -0.18661,0.14675 -0.20638,0.12665 -0.21343,0.0998 -0.21978,0.0868 -0.22648,0.0663 -0.23284,0.0536 -0.22683,0.0399 -0.21978,0.0201 -0.22014,0.0134 -0.20637,0.006 h -0.28646 l -0.26635,-0.006 h -0.23318 l -0.22013,-0.007 -0.19968,-0.006 -0.17991,-0.0138 -0.15981,-0.0131 -0.15346,-0.0198 -0.1397,-0.0134 -0.12665,-0.0268 -0.12664,-0.0198 -0.11325,-0.0335 -0.11324,-0.0265 -0.10654,-0.0399 -0.10689,-0.0402 -0.11324,-0.0402 0.29986,-1.47214 0.0603,0.013 0.073,0.0201 0.0931,0.0268 0.11324,0.0265 0.11995,0.0268 0.13335,0.0268 0.14675,0.0328 0.15981,0.0272 0.16651,0.0265 0.17322,0.0265 0.17991,0.0205 0.18662,0.0198 0.19332,0.007 0.19297,0.006 h 0.19333 l 0.19332,-0.006 0.19297,-0.0399 0.15346,-0.0536 0.11994,-0.0734 0.0931,-0.0931 0.0667,-0.0931 0.0533,-0.1069 0.0335,-0.10653 0.0265,-0.0998 0.0134,-0.19333 -0.06,-0.16616 -0.11324,-0.13335 -0.16687,-0.11359 -0.19967,-0.0998 -0.23318,-0.0998 -0.26,-0.0935 -0.25965,-0.10619 -0.26634,-0.11994 -0.2533,-0.14041 -0.23318,-0.17321 -0.21343,-0.20637 -0.16652,-0.2533 -0.11994,-0.29951 -0.06,-0.36018 0.007,-0.42616 0.0335,-0.26 0.0466,-0.24624 0.0667,-0.22648 0.0797,-0.21343 0.10654,-0.19967 0.1203,-0.17322 0.1397,-0.16686 0.16651,-0.1464 0.19332,-0.12665 0.21308,-0.10654 0.23989,-0.0998 0.2667,-0.0734 0.29986,-0.06 0.32632,-0.0466 0.35948,-0.0268 0.39334,-0.007 h 0.2466 l 0.22648,0.007 0.20637,0.007 0.18662,0.007 0.16652,0.0134 0.15345,0.0134 0.133,0.0134 0.11995,0.013 0.11359,0.0134 0.0931,0.0198 0.0864,0.0134 0.0801,0.0134 0.0667,0.0131 0.06,0.007 0.06,0.0131 0.0533,0.007 -0.33973,1.50566 v 0 0"
       style="fill:#ffffff;fill-opacity:1;fill-rule:evenodd;stroke:none;stroke-width:0.03527778"
       id="path44" />
    <path
       d="m 167.50526,244.95918 v 0 l -0.0935,-0.007 -0.0931,-0.0134 -0.0868,-0.0134 -0.0864,-0.0134 -0.0801,-0.013 -0.0864,-0.0134 -0.0868,-0.0134 -0.0931,-0.0134 -0.0931,-0.013 -0.10689,-0.007 -0.11959,-0.006 -0.12665,-0.007 h -0.14005 l -0.15311,0.007 -0.17356,0.0134 -0.19297,0.013 v 0 l -0.13335,0.0201 -0.12665,0.0201 -0.11324,0.0399 -0.0998,0.0399 -0.0935,0.0466 -0.0864,0.0533 -0.0667,0.067 -0.06,0.0596 -0.0399,0.0734 -0.0335,0.0734 -0.0134,0.0801 v 0.0801 l 0.0201,0.0861 0.0268,0.0868 0.0533,0.0868 0.0667,0.0864 v 0 l 0.133,0.12629 0.16016,0.10019 0.18626,0.0868 0.20003,0.0734 0.21308,0.0663 0.21978,0.0734 0.22013,0.0801 0.21308,0.0868 0.20002,0.11289 0.18662,0.14005 0.16651,0.16651 0.1397,0.20638 0.1069,0.25329 0.0667,0.30022 0.0265,0.35948 -0.0265,0.4198 v 0 l -0.0469,0.31292 -0.0797,0.2734 -0.1069,0.25329 -0.13335,0.21979 -0.1531,0.19296 -0.17322,0.16652 -0.18661,0.14675 -0.20638,0.12665 -0.21343,0.0998 -0.21978,0.0868 -0.22648,0.0663 -0.23284,0.0536 -0.22683,0.0399 -0.21978,0.0201 -0.22014,0.0134 -0.20637,0.006 v 0 h -0.28646 l -0.26635,-0.006 h -0.23318 l -0.22013,-0.007 -0.19968,-0.006 -0.17991,-0.0138 -0.15981,-0.0131 -0.15346,-0.0198 -0.1397,-0.0134 -0.12665,-0.0268 -0.12664,-0.0198 -0.11325,-0.0335 -0.11324,-0.0265 -0.10654,-0.0399 -0.10689,-0.0402 -0.11324,-0.0402 0.29986,-1.47214 v 0 l 0.0603,0.013 0.073,0.0201 0.0931,0.0268 0.11324,0.0265 0.11995,0.0268 0.13335,0.0268 0.14675,0.0328 0.15981,0.0272 0.16651,0.0265 0.17322,0.0265 0.17991,0.0205 0.18662,0.0198 0.19332,0.007 0.19297,0.006 h 0.19333 l 0.19332,-0.006 v 0 l 0.19297,-0.0399 0.15346,-0.0536 0.11994,-0.0734 0.0931,-0.0931 0.0667,-0.0931 0.0533,-0.1069 0.0335,-0.10653 0.0265,-0.0998 v 0 l 0.0134,-0.19333 -0.06,-0.16616 -0.11324,-0.13335 -0.16687,-0.11359 -0.19967,-0.0998 -0.23318,-0.0998 -0.26,-0.0935 -0.25965,-0.10619 -0.26634,-0.11994 -0.2533,-0.14041 -0.23318,-0.17321 -0.21343,-0.20637 -0.16652,-0.2533 -0.11994,-0.29951 -0.06,-0.36018 0.007,-0.42616 v 0 l 0.0335,-0.26 0.0466,-0.24624 0.0667,-0.22648 0.0797,-0.21343 0.10654,-0.19967 0.1203,-0.17322 0.1397,-0.16686 0.16651,-0.1464 0.19332,-0.12665 0.21308,-0.10654 0.23989,-0.0998 0.2667,-0.0734 0.29986,-0.06 0.32632,-0.0466 0.35948,-0.0268 0.39334,-0.007 v 0 h 0.2466 l 0.22648,0.007 0.20637,0.007 0.18662,0.007 0.16652,0.0134 0.15345,0.0134 0.133,0.0134 0.11995,0.013 0.11359,0.0134 0.0931,0.0198 0.0864,0.0134 0.0801,0.0134 0.0667,0.0131 0.06,0.007 0.06,0.0131 0.0533,0.007 -0.33973,1.50566"
       style="fill:none;stroke:#ffffff;stroke-width:0.0762;stroke-linecap:butt;stroke-linejoin:miter;stroke-miterlimit:2.61310005;stroke-dasharray:none;stroke-opacity:1"
       id="path46" />
    <path
       d="m 169.0843,241.80746 h 1.84538 l -0.27305,1.61255 h 1.11266 l -0.23989,1.50565 -1.17263,-0.0332 -0.63959,3.71758 -0.007,0.13335 0.0332,0.11324 0.067,0.0864 0.0864,0.0734 0.11994,0.0466 0.13335,0.0402 0.14641,0.0265 0.1598,0.0134 0.14676,-0.007 0.133,-0.0134 0.12029,-0.0198 0.10619,-0.0268 0.0868,-0.0265 0.06,-0.0201 0.0402,-0.0134 0.013,-0.006 -0.23319,1.23895 -0.0466,0.0332 -0.0466,0.0268 -0.0466,0.0265 -0.0469,0.0272 -0.0466,0.0198 -0.0533,0.0201 -0.06,0.0201 -0.06,0.0198 -0.0667,0.0201 -0.0667,0.013 -0.0797,0.0134 -0.0801,0.0134 -0.0864,0.013 -0.0998,0.0134 -0.10689,0.0134 -0.11324,0.013 h -0.50624 l -0.2667,-0.0198 -0.23318,-0.0265 -0.21308,-0.0402 -0.17992,-0.0462 -0.1531,-0.06 -0.12665,-0.067 -0.11359,-0.0797 -0.0864,-0.0868 -0.0663,-0.0931 -0.0469,-0.11324 -0.0332,-0.11359 -0.0201,-0.1263 -0.007,-0.14005 v -0.14676 l 0.0201,-0.15275 0.0198,-0.16686 1.27282,-7.26899 v 0 0"
       style="fill:#ffffff;fill-opacity:1;fill-rule:evenodd;stroke:none;stroke-width:0.03527778"
       id="path48" />
    <path
       d="m 169.0843,241.80746 h 1.84538 l -0.27305,1.61255 h 1.11266 l -0.23989,1.50565 -1.17263,-0.0332 -0.63959,3.71758 v 0 l -0.007,0.13335 0.0332,0.11324 0.067,0.0864 0.0864,0.0734 0.11994,0.0466 0.13335,0.0402 0.14641,0.0265 0.1598,0.0134 v 0 l 0.14676,-0.007 0.133,-0.0134 0.12029,-0.0198 0.10619,-0.0268 0.0868,-0.0265 0.06,-0.0201 0.0402,-0.0134 0.013,-0.006 -0.23319,1.23895 v 0 l -0.0466,0.0332 -0.0466,0.0268 -0.0466,0.0265 -0.0469,0.0272 -0.0466,0.0198 -0.0533,0.0201 -0.06,0.0201 -0.06,0.0198 -0.0667,0.0201 -0.0667,0.013 -0.0797,0.0134 -0.0801,0.0134 -0.0864,0.013 -0.0998,0.0134 -0.10689,0.0134 -0.11324,0.013 h -0.50624 v 0 l -0.2667,-0.0198 -0.23318,-0.0265 -0.21308,-0.0402 -0.17992,-0.0462 -0.1531,-0.06 -0.12665,-0.067 -0.11359,-0.0797 -0.0864,-0.0868 -0.0663,-0.0931 -0.0469,-0.11324 -0.0332,-0.11359 -0.0201,-0.1263 -0.007,-0.14005 v -0.14676 l 0.0201,-0.15275 0.0198,-0.16686 1.27282,-7.26899"
       style="fill:none;stroke:#ffffff;stroke-width:0.0762;stroke-linecap:butt;stroke-linejoin:miter;stroke-miterlimit:2.61310005;stroke-dasharray:none;stroke-opacity:1"
       id="path50" />
    <path
       d="m 173.24143,247.43779 -0.0198,0.11289 -0.007,0.11995 0.0134,0.12664 0.0268,0.12665 0.0466,0.12665 0.0533,0.11994 0.0734,0.1263 0.0797,0.11324 0.0935,0.11359 0.0998,0.0998 0.10654,0.0998 0.11994,0.0801 0.11995,0.0734 0.13335,0.06 0.133,0.0462 0.13335,0.0272 0.17321,0.0265 0.16651,0.0198 0.17357,0.0201 0.17286,0.0134 0.17321,0.007 h 0.17992 l 0.17321,-0.007 0.18027,-0.0134 0.17957,-0.0265 0.17991,-0.0335 0.18662,-0.0399 0.17992,-0.06 0.18662,-0.0734 0.19297,-0.0801 0.18662,-0.10618 0.19332,-0.1136 -0.2667,1.63901 -0.10618,0.0533 -0.1069,0.0536 -0.10654,0.0399 -0.0998,0.0399 -0.0998,0.0335 -0.10689,0.0332 -0.10653,0.0268 -0.11325,0.0198 -0.11994,0.0201 -0.133,0.0131 -0.14005,0.0134 -0.15346,0.0134 -0.17286,0.007 h -0.17992 l -0.20672,0.006 h -0.21979 l -0.32667,-0.006 -0.33302,-0.0335 -0.33302,-0.0466 -0.33338,-0.0797 -0.32632,-0.0998 -0.31326,-0.127 -0.29987,-0.16616 -0.27975,-0.19332 -0.26,-0.22648 -0.22648,-0.27305 -0.19297,-0.30657 -0.16016,-0.35313 -0.11324,-0.39335 -0.0734,-0.44626 -0.0198,-0.49318 0.0335,-0.54646 0.0265,-0.21272 0.0402,-0.24695 0.0529,-0.25964 0.0734,-0.28011 0.10019,-0.2861 0.11959,-0.28645 0.15346,-0.29316 0.18626,-0.28011 0.21344,-0.26634 0.25999,-0.2533 0.29281,-0.22648 0.33337,-0.19967 0.38629,-0.16687 0.43322,-0.11994 0.47977,-0.0797 0.5394,-0.0268 0.26,0.007 0.27305,0.0268 0.2734,0.0466 0.27305,0.0663 0.26635,0.10019 0.26,0.11994 0.23989,0.15981 0.21977,0.18662 0.20003,0.22683 0.16651,0.26635 0.133,0.30621 0.0935,0.35349 0.0533,0.39934 0.007,0.45297 -0.0466,0.50659 -0.10019,0.55985 -0.0332,0.40605 h -4.85706 l 0.30656,-1.31268 h 2.91818 l 0.0134,-0.16616 -0.007,-0.15981 -0.0134,-0.14675 -0.0265,-0.133 -0.0469,-0.127 -0.0466,-0.11324 -0.0667,-0.0998 -0.0667,-0.0931 -0.0797,-0.0801 -0.0868,-0.0667 -0.0998,-0.06 -0.0998,-0.0533 -0.10654,-0.0399 -0.10689,-0.0268 -0.11324,-0.0198 -0.11995,-0.0134 -0.12665,0.007 -0.11959,0.0201 -0.11359,0.0265 -0.11325,0.0402 -0.11324,0.0529 -0.0998,0.0603 -0.0998,0.073 -0.0868,0.0801 -0.0864,0.0931 -0.0801,0.0998 -0.0734,0.10654 -0.0596,0.11359 -0.0603,0.11994 -0.0466,0.13335 -0.0399,0.133 -0.0268,0.1397 -0.2667,1.37972 v 0 0"
       style="fill:#ffffff;fill-opacity:1;fill-rule:evenodd;stroke:none;stroke-width:0.03527778"
       id="path52" />
    <path
       d="m 173.24143,247.43779 v 0 l -0.0198,0.11289 -0.007,0.11995 0.0134,0.12664 0.0268,0.12665 0.0466,0.12665 0.0533,0.11994 0.0734,0.1263 0.0797,0.11324 0.0935,0.11359 0.0998,0.0998 0.10654,0.0998 0.11994,0.0801 0.11995,0.0734 0.13335,0.06 0.133,0.0462 0.13335,0.0272 v 0 l 0.17321,0.0265 0.16651,0.0198 0.17357,0.0201 0.17286,0.0134 0.17321,0.007 h 0.17992 l 0.17321,-0.007 0.18027,-0.0134 0.17957,-0.0265 0.17991,-0.0335 0.18662,-0.0399 0.17992,-0.06 0.18662,-0.0734 0.19297,-0.0801 0.18662,-0.10618 0.19332,-0.1136 -0.2667,1.63901 v 0 l -0.10618,0.0533 -0.1069,0.0536 -0.10654,0.0399 -0.0998,0.0399 -0.0998,0.0335 -0.10689,0.0332 -0.10653,0.0268 -0.11325,0.0198 -0.11994,0.0201 -0.133,0.0131 -0.14005,0.0134 -0.15346,0.0134 -0.17286,0.007 h -0.17992 l -0.20672,0.006 h -0.21979 v 0 l -0.32667,-0.006 -0.33302,-0.0335 -0.33302,-0.0466 -0.33338,-0.0797 -0.32632,-0.0998 -0.31326,-0.127 -0.29987,-0.16616 -0.27975,-0.19332 -0.26,-0.22648 -0.22648,-0.27305 -0.19297,-0.30657 -0.16016,-0.35313 -0.11324,-0.39335 -0.0734,-0.44626 -0.0198,-0.49318 0.0335,-0.54646 v 0 l 0.0265,-0.21272 0.0402,-0.24695 0.0529,-0.25964 0.0734,-0.28011 0.10019,-0.2861 0.11959,-0.28645 0.15346,-0.29316 0.18626,-0.28011 0.21344,-0.26634 0.25999,-0.2533 0.29281,-0.22648 0.33337,-0.19967 0.38629,-0.16687 0.43322,-0.11994 0.47977,-0.0797 0.5394,-0.0268 v 0 l 0.26,0.007 0.27305,0.0268 0.2734,0.0466 0.27305,0.0663 0.26635,0.10019 0.26,0.11994 0.23989,0.15981 0.21977,0.18662 0.20003,0.22683 0.16651,0.26635 0.133,0.30621 0.0935,0.35349 0.0533,0.39934 0.007,0.45297 -0.0466,0.50659 -0.10019,0.55985 -0.0332,0.40605 h -4.85706 l 0.30656,-1.31268 h 2.91818 v 0 l 0.0134,-0.16616 -0.007,-0.15981 -0.0134,-0.14675 -0.0265,-0.133 -0.0469,-0.127 -0.0466,-0.11324 -0.0667,-0.0998 -0.0667,-0.0931 -0.0797,-0.0801 -0.0868,-0.0667 -0.0998,-0.06 -0.0998,-0.0533 -0.10654,-0.0399 -0.10689,-0.0268 -0.11324,-0.0198 -0.11995,-0.0134 v 0 l -0.12665,0.007 -0.11959,0.0201 -0.11359,0.0265 -0.11325,0.0402 -0.11324,0.0529 -0.0998,0.0603 -0.0998,0.073 -0.0868,0.0801 -0.0864,0.0931 -0.0801,0.0998 -0.0734,0.10654 -0.0596,0.11359 -0.0603,0.11994 -0.0466,0.13335 -0.0399,0.133 -0.0268,0.1397 -0.2667,1.37972"
       style="fill:none;stroke:#ffffff;stroke-width:0.0762;stroke-linecap:butt;stroke-linejoin:miter;stroke-miterlimit:2.61310005;stroke-dasharray:none;stroke-opacity:1"
       id="path54" />
    <path
       d="m 189.13195,243.81971 -0.0864,-0.0466 -0.0864,-0.0399 -0.0935,-0.0469 -0.0998,-0.0466 -0.0998,-0.0399 -0.11359,-0.0402 -0.11324,-0.0399 -0.11995,-0.0399 -0.12629,-0.0335 -0.127,-0.0265 -0.1397,-0.0268 -0.14006,-0.0198 -0.1531,-0.0134 -0.15346,-0.0134 h -0.15981 -0.16616 -0.16686 l -0.17321,0.0134 -0.17992,0.0198 -0.18627,0.0335 -0.18697,0.0533 -0.18627,0.0734 -0.18661,0.0931 -0.18698,0.11994 -0.17921,0.14676 -0.17356,0.17286 -0.16652,0.21343 -0.15981,0.24659 -0.1464,0.29316 -0.1404,0.33302 -0.1263,0.37324 -0.10654,0.42615 -0.0399,0.23989 -0.0272,0.23319 -0.0134,0.23318 0.007,0.22684 0.0201,0.22613 0.0462,0.21343 0.06,0.19967 0.0734,0.20038 0.10019,0.17957 0.11959,0.17356 0.14006,0.15276 0.15981,0.14005 0.18026,0.11994 0.20638,0.10019 0.22648,0.0864 0.2533,0.06 0.0864,0.0198 0.0998,0.0201 0.11994,0.0134 0.13335,0.0134 0.1464,0.013 h 0.15346 0.16651 l 0.16651,-0.013 0.17322,-0.0201 0.17356,-0.0332 0.16616,-0.0466 0.16687,-0.0533 0.16651,-0.0734 0.1531,-0.0868 0.14006,-0.10654 0.13335,-0.11994 -0.29986,1.77906 -0.0399,0.0332 -0.0402,0.0399 -0.0533,0.0469 -0.06,0.0399 -0.0734,0.0533 -0.0935,0.0466 -0.10619,0.0466 -0.11995,0.0399 -0.15345,0.0469 -0.17322,0.0332 -0.19967,0.0268 -0.23354,0.0265 -0.25964,0.0134 -0.29951,0.007 -0.34008,-0.007 -0.37324,-0.0198 -0.30621,-0.0335 -0.30656,-0.0663 -0.30622,-0.10019 -0.30691,-0.13335 -0.29316,-0.15981 -0.27975,-0.20003 -0.26635,-0.23283 -0.24659,-0.2667 -0.22014,-0.29986 -0.18626,-0.33302 -0.15981,-0.37324 -0.11994,-0.4064 -0.0801,-0.44662 -0.0268,-0.47272 0.0134,-0.51964 0.0734,-0.5528 0.0533,-0.27341 0.06,-0.2667 0.0667,-0.25964 0.0667,-0.24659 0.0734,-0.23319 0.0864,-0.23319 0.0868,-0.21978 0.0928,-0.20672 0.10054,-0.20673 0.0998,-0.19297 0.11289,-0.18662 0.11994,-0.17321 0.1203,-0.16652 0.133,-0.1598 0.13335,-0.14676 0.1397,-0.1397 0.15345,-0.13335 0.15311,-0.12665 0.15981,-0.11324 0.16686,-0.10654 0.17992,-0.10019 0.17992,-0.0864 0.18626,-0.0801 0.19332,-0.073 0.20673,-0.067 0.20638,-0.0529 0.21307,-0.0469 0.22684,-0.0399 0.22613,-0.0335 0.24024,-0.0265 0.23989,-0.013 0.2533,-0.007 0.21307,0.007 0.20638,0.013 0.19967,0.0198 0.20003,0.0268 0.18662,0.0268 0.17991,0.0399 0.17322,0.0335 0.15981,0.0399 0.15345,0.0399 0.13335,0.0402 0.1263,0.0399 0.10689,0.0399 0.0931,0.0335 0.0797,0.0265 0.0603,0.0268 0.0395,0.0134 -0.33302,1.84538 v 0 0"
       style="fill:#ffffff;fill-opacity:1;fill-rule:evenodd;stroke:none;stroke-width:0.03527778"
       id="path56" />
    <path
       d="m 189.13195,243.81971 v 0 l -0.0864,-0.0466 -0.0864,-0.0399 -0.0935,-0.0469 -0.0998,-0.0466 -0.0998,-0.0399 -0.11359,-0.0402 -0.11324,-0.0399 -0.11995,-0.0399 -0.12629,-0.0335 -0.127,-0.0265 -0.1397,-0.0268 -0.14006,-0.0198 -0.1531,-0.0134 -0.15346,-0.0134 h -0.15981 -0.16616 v 0 h -0.16686 l -0.17321,0.0134 -0.17992,0.0198 -0.18627,0.0335 -0.18697,0.0533 -0.18627,0.0734 -0.18661,0.0931 -0.18698,0.11994 -0.17921,0.14676 -0.17356,0.17286 -0.16652,0.21343 -0.15981,0.24659 -0.1464,0.29316 -0.1404,0.33302 -0.1263,0.37324 -0.10654,0.42615 v 0 l -0.0399,0.23989 -0.0272,0.23319 -0.0134,0.23318 0.007,0.22684 0.0201,0.22613 0.0462,0.21343 0.06,0.19967 0.0734,0.20038 0.10019,0.17957 0.11959,0.17356 0.14006,0.15276 0.15981,0.14005 0.18026,0.11994 0.20638,0.10019 0.22648,0.0864 0.2533,0.06 v 0 l 0.0864,0.0198 0.0998,0.0201 0.11994,0.0134 0.13335,0.0134 0.1464,0.013 h 0.15346 0.16651 l 0.16651,-0.013 0.17322,-0.0201 0.17356,-0.0332 0.16616,-0.0466 0.16687,-0.0533 0.16651,-0.0734 0.1531,-0.0868 0.14006,-0.10654 0.13335,-0.11994 -0.29986,1.77906 v 0 l -0.0399,0.0332 -0.0402,0.0399 -0.0533,0.0469 -0.06,0.0399 -0.0734,0.0533 -0.0935,0.0466 -0.10619,0.0466 -0.11995,0.0399 -0.15345,0.0469 -0.17322,0.0332 -0.19967,0.0268 -0.23354,0.0265 -0.25964,0.0134 -0.29951,0.007 -0.34008,-0.007 -0.37324,-0.0198 v 0 l -0.30621,-0.0335 -0.30656,-0.0663 -0.30622,-0.10019 -0.30691,-0.13335 -0.29316,-0.15981 -0.27975,-0.20003 -0.26635,-0.23283 -0.24659,-0.2667 -0.22014,-0.29986 -0.18626,-0.33302 -0.15981,-0.37324 -0.11994,-0.4064 -0.0801,-0.44662 -0.0268,-0.47272 0.0134,-0.51964 0.0734,-0.5528 v 0 l 0.0533,-0.27341 0.06,-0.2667 0.0667,-0.25964 0.0667,-0.24659 0.0734,-0.23319 0.0864,-0.23319 0.0868,-0.21978 0.0928,-0.20672 0.10054,-0.20673 0.0998,-0.19297 0.11289,-0.18662 0.11994,-0.17321 0.1203,-0.16652 0.133,-0.1598 0.13335,-0.14676 0.1397,-0.1397 0.15345,-0.13335 0.15311,-0.12665 0.15981,-0.11324 0.16686,-0.10654 0.17992,-0.10019 0.17992,-0.0864 0.18626,-0.0801 0.19332,-0.073 0.20673,-0.067 0.20638,-0.0529 0.21307,-0.0469 0.22684,-0.0399 0.22613,-0.0335 0.24024,-0.0265 0.23989,-0.013 0.2533,-0.007 v 0 l 0.21307,0.007 0.20638,0.013 0.19967,0.0198 0.20003,0.0268 0.18662,0.0268 0.17991,0.0399 0.17322,0.0335 0.15981,0.0399 0.15345,0.0399 0.13335,0.0402 0.1263,0.0399 0.10689,0.0399 0.0931,0.0335 0.0797,0.0265 0.0603,0.0268 0.0395,0.0134 -0.33302,1.84538"
       style="fill:none;stroke:#ffffff;stroke-width:0.0762;stroke-linecap:butt;stroke-linejoin:miter;stroke-miterlimit:2.61310005;stroke-dasharray:none;stroke-opacity:1"
       id="path58" />
    <path
       d="m 205.53541,250.55529 h -1.84538 l 0.133,-0.73907 v -0.067 l -0.10619,0.13335 -0.11359,0.11995 -0.11324,0.10689 -0.11995,0.0931 -0.11994,0.0868 -0.11959,0.0734 -0.11995,0.06 -0.127,0.0596 -0.12629,0.0466 -0.12665,0.0335 -0.12665,0.0335 -0.13335,0.0198 -0.13335,0.0201 -0.12629,0.0131 -0.13335,0.007 h -0.13335 l -0.34608,-0.0272 -0.32032,-0.0734 -0.29316,-0.11289 -0.26634,-0.15311 -0.23989,-0.19332 -0.21308,-0.22648 -0.18662,-0.24659 -0.15981,-0.27976 -0.13335,-0.30021 -0.10654,-0.31256 -0.0734,-0.32667 -0.0533,-0.33973 -0.0201,-0.34008 0.007,-0.34642 0.0328,-0.33973 0.06,-0.33972 0.10019,-0.39335 0.11995,-0.37289 0.14005,-0.33972 0.16651,-0.31997 0.17321,-0.29986 0.19968,-0.26635 0.20672,-0.23989 0.21978,-0.21978 0.23319,-0.19332 0.24694,-0.16651 0.25295,-0.14641 0.25294,-0.11359 0.2667,-0.0931 0.26634,-0.06 0.2667,-0.0399 0.27305,-0.0134 0.19333,0.006 0.18626,0.0201 0.17322,0.0335 0.16016,0.0466 0.1531,0.0533 0.13335,0.06 0.13335,0.0734 0.11995,0.073 0.10654,0.0801 0.0998,0.0868 0.0864,0.0864 0.0804,0.0868 0.0663,0.0864 0.06,0.0868 0.0533,0.0801 0.0402,0.0797 v 0 l 0.46637,-2.61832 h 1.81222 l -1.50601,8.71432 v 0 0"
       style="fill:#ffffff;fill-opacity:1;fill-rule:evenodd;stroke:none;stroke-width:0.03527778"
       id="path60" />
    <path
       d="m 205.53541,250.55529 h -1.84538 l 0.133,-0.73907 v -0.067 l -0.10619,0.13335 -0.11359,0.11995 -0.11324,0.10689 -0.11995,0.0931 -0.11994,0.0868 -0.11959,0.0734 -0.11995,0.06 -0.127,0.0596 -0.12629,0.0466 -0.12665,0.0335 -0.12665,0.0335 -0.13335,0.0198 -0.13335,0.0201 -0.12629,0.0131 -0.13335,0.007 h -0.13335 v 0 l -0.34608,-0.0272 -0.32032,-0.0734 -0.29316,-0.11289 -0.26634,-0.15311 -0.23989,-0.19332 -0.21308,-0.22648 -0.18662,-0.24659 -0.15981,-0.27976 -0.13335,-0.30021 -0.10654,-0.31256 -0.0734,-0.32667 -0.0533,-0.33973 -0.0201,-0.34008 0.007,-0.34642 0.0328,-0.33973 0.06,-0.33972 v 0 l 0.10019,-0.39335 0.11995,-0.37289 0.14005,-0.33972 0.16651,-0.31997 0.17321,-0.29986 0.19968,-0.26635 0.20672,-0.23989 0.21978,-0.21978 0.23319,-0.19332 0.24694,-0.16651 0.25295,-0.14641 0.25294,-0.11359 0.2667,-0.0931 0.26634,-0.06 0.2667,-0.0399 0.27305,-0.0134 v 0 l 0.19333,0.006 0.18626,0.0201 0.17322,0.0335 0.16016,0.0466 0.1531,0.0533 0.13335,0.06 0.13335,0.0734 0.11995,0.073 0.10654,0.0801 0.0998,0.0868 0.0864,0.0864 0.0804,0.0868 0.0663,0.0864 0.06,0.0868 0.0533,0.0801 0.0402,0.0797 v 0 l 0.46637,-2.61832 h 1.81222 l -1.50601,8.71432"
       style="fill:none;stroke:#ffffff;stroke-width:0.0762;stroke-linecap:butt;stroke-linejoin:miter;stroke-miterlimit:2.61310005;stroke-dasharray:none;stroke-opacity:1"
       id="path62" />
    <path
       d="m 202.5174,248.9431 0.18662,-0.013 0.17321,-0.0399 0.15981,-0.0469 0.15346,-0.0734 0.1397,-0.0801 0.13335,-0.0998 0.12629,-0.11289 0.1136,-0.1203 0.0998,-0.133 0.0931,-0.14675 0.0868,-0.15311 0.0734,-0.16016 0.0663,-0.16616 0.0533,-0.17321 0.0466,-0.17992 0.0335,-0.17991 0.0335,-0.18662 0.0198,-0.19332 v -0.17992 l -0.007,-0.18627 -0.0198,-0.17356 -0.0268,-0.16652 -0.0466,-0.1598 -0.0533,-0.15346 -0.0667,-0.133 -0.0797,-0.12665 -0.0868,-0.10689 -0.10019,-0.0931 -0.11325,-0.0797 -0.11994,-0.0536 -0.12629,-0.0332 -0.14006,-0.0134 -0.17991,0.0134 -0.16651,0.0268 -0.15346,0.0533 -0.15311,0.0667 -0.13335,0.0864 -0.13299,0.10654 -0.11325,0.1136 -0.11359,0.12629 -0.0998,0.1464 -0.0931,0.15346 -0.0868,0.15981 -0.0734,0.17321 -0.0663,0.17992 -0.0533,0.17992 -0.0536,0.19332 -0.0395,0.19332 -0.0335,0.29316 0.0134,0.31962 0.0466,0.32667 0.0864,0.31291 0.13335,0.2734 0.17321,0.21979 0.21978,0.14675 0.2667,0.0529 v 0 0"
       style="fill:#f9ab1e;fill-opacity:1;fill-rule:evenodd;stroke:none;stroke-width:0.03527778"
       id="path64" />
    <path
       d="m 161.60188,249.07645 -0.26635,1.47884 h -1.67887 l 0.0466,-0.27305 0.0335,-0.24624 0.0265,-0.18626 0.0268,-0.10055 -0.0935,0.1069 -0.10653,0.10653 -0.12665,0.0998 -0.1397,0.0935 -0.16016,0.0931 -0.16651,0.0801 -0.17322,0.0797 -0.17991,0.0667 -0.19333,0.06 -0.19297,0.0469 -0.19332,0.0399 -0.19967,0.0265 -0.19332,0.0134 -0.19332,0.007 -0.18662,-0.0201 -0.17992,-0.0265 -0.23319,-0.06 -0.21307,-0.0663 -0.18662,-0.0871 -0.16652,-0.0998 -0.1464,-0.10653 -0.13335,-0.11995 -0.10654,-0.12665 -0.0935,-0.13335 -0.0801,-0.1397 -0.0663,-0.14675 -0.0536,-0.1464 -0.0399,-0.14641 -0.0265,-0.15346 -0.0201,-0.1531 -0.0134,-0.14676 v -0.1464 l 0.0201,-0.26 0.0399,-0.24659 0.0667,-0.23318 0.0864,-0.22649 0.10689,-0.21308 0.11995,-0.19332 0.1397,-0.18626 0.16016,-0.16687 0.16651,-0.15346 0.18662,-0.1397 0.19297,-0.12664 0.20003,-0.10654 0.21307,-0.0931 0.22014,-0.0734 0.22648,-0.06 0.23283,-0.0399 h 0.0138 l 0.0332,-0.007 0.0469,-0.007 0.073,-0.007 0.0797,-0.0134 0.0935,-0.007 0.0998,-0.0131 0.11324,-0.0138 0.11325,-0.013 0.11324,-0.0134 0.11994,-0.006 0.10689,-0.0134 0.10654,-0.007 0.0998,-0.007 0.0935,-0.006 h 0.073 0.15346 l 0.15981,0.006 0.1464,0.007 h 0.14676 l 0.11994,0.007 0.0931,0.006 0.0667,0.007 h 0.0198 l 0.0138,-0.0469 0.0399,-0.11995 0.0332,-0.14005 0.0134,-0.12629 -0.0268,-0.14676 -0.0596,-0.13335 -0.0801,-0.11959 -0.10654,-0.10019 -0.12664,-0.0864 -0.14006,-0.06 -0.1598,-0.0402 -0.17322,-0.013 -0.18662,-0.007 -0.20002,-0.007 h -0.2064 l -0.21343,0.007 -0.21978,0.0134 -0.21308,0.0198 -0.21308,0.0201 -0.20672,0.0268 -0.19968,0.0265 -0.19332,0.0332 -0.17321,0.0335 -0.15981,0.0332 -0.14676,0.0402 -0.11994,0.0399 -0.0931,0.0466 -0.0734,0.0399 0.47307,-1.60549 0.14641,-0.06 0.14675,-0.0533 0.15981,-0.0466 0.15981,-0.0335 0.16016,-0.0335 0.17321,-0.0265 0.17322,-0.0265 0.17991,-0.0134 0.18662,-0.0134 0.19297,-0.006 0.20003,-0.007 h 0.20637 0.21343 0.21978 l 0.23319,0.007 0.23319,0.006 0.18662,0.0134 0.19967,0.0332 0.20673,0.0469 0.21307,0.06 0.20673,0.0797 0.19967,0.0935 0.20003,0.11289 0.18662,0.12664 0.16616,0.14676 0.14675,0.16016 0.13335,0.17956 0.0998,0.20003 0.0667,0.21308 0.0399,0.22648 v 0.25329 l -0.0399,0.26635 -0.6731,3.5179 v 0 0"
       style="fill:#ffffff;fill-opacity:1;fill-rule:evenodd;stroke:none;stroke-width:0.03527778"
       id="path66" />
    <path
       d="m 161.60188,249.07645 -0.26635,1.47884 h -1.67887 v 0 l 0.0466,-0.27305 0.0335,-0.24624 0.0265,-0.18626 0.0268,-0.10055 v 0 l -0.0935,0.1069 -0.10653,0.10653 -0.12665,0.0998 -0.1397,0.0935 -0.16016,0.0931 -0.16651,0.0801 -0.17322,0.0797 -0.17991,0.0667 -0.19333,0.06 -0.19297,0.0469 -0.19332,0.0399 -0.19967,0.0265 -0.19332,0.0134 -0.19332,0.007 -0.18662,-0.0201 -0.17992,-0.0265 v 0 l -0.23319,-0.06 -0.21307,-0.0663 -0.18662,-0.0871 -0.16652,-0.0998 -0.1464,-0.10653 -0.13335,-0.11995 -0.10654,-0.12665 -0.0935,-0.13335 -0.0801,-0.1397 -0.0663,-0.14675 -0.0536,-0.1464 -0.0399,-0.14641 -0.0265,-0.15346 -0.0201,-0.1531 -0.0134,-0.14676 v -0.1464 0 l 0.0201,-0.26 0.0399,-0.24659 0.0667,-0.23318 0.0864,-0.22649 0.10689,-0.21308 0.11995,-0.19332 0.1397,-0.18626 0.16016,-0.16687 0.16651,-0.15346 0.18662,-0.1397 0.19297,-0.12664 0.20003,-0.10654 0.21307,-0.0931 0.22014,-0.0734 0.22648,-0.06 0.23283,-0.0399 v 0 h 0.0138 l 0.0332,-0.007 0.0469,-0.007 0.073,-0.007 0.0797,-0.0134 0.0935,-0.007 0.0998,-0.0131 0.11324,-0.0138 0.11325,-0.013 0.11324,-0.0134 0.11994,-0.006 0.10689,-0.0134 0.10654,-0.007 0.0998,-0.007 0.0935,-0.006 h 0.073 v 0 h 0.15346 l 0.15981,0.006 0.1464,0.007 h 0.14676 l 0.11994,0.007 0.0931,0.006 0.0667,0.007 h 0.0198 v 0 l 0.0138,-0.0469 0.0399,-0.11995 0.0332,-0.14005 0.0134,-0.12629 v 0 l -0.0268,-0.14676 -0.0596,-0.13335 -0.0801,-0.11959 -0.10654,-0.10019 -0.12664,-0.0864 -0.14006,-0.06 -0.1598,-0.0402 -0.17322,-0.013 v 0 l -0.18662,-0.007 -0.20002,-0.007 h -0.2064 l -0.21343,0.007 -0.21978,0.0134 -0.21308,0.0198 -0.21308,0.0201 -0.20672,0.0268 -0.19968,0.0265 -0.19332,0.0332 -0.17321,0.0335 -0.15981,0.0332 -0.14676,0.0402 -0.11994,0.0399 -0.0931,0.0466 -0.0734,0.0399 0.47307,-1.60549 v 0 l 0.14641,-0.06 0.14675,-0.0533 0.15981,-0.0466 0.15981,-0.0335 0.16016,-0.0335 0.17321,-0.0265 0.17322,-0.0265 0.17991,-0.0134 0.18662,-0.0134 0.19297,-0.006 0.20003,-0.007 h 0.20637 0.21343 0.21978 l 0.23319,0.007 0.23319,0.006 v 0 l 0.18662,0.0134 0.19967,0.0332 0.20673,0.0469 0.21307,0.06 0.20673,0.0797 0.19967,0.0935 0.20003,0.11289 0.18662,0.12664 0.16616,0.14676 0.14675,0.16016 0.13335,0.17956 0.0998,0.20003 0.0667,0.21308 0.0399,0.22648 v 0.25329 l -0.0399,0.26635 -0.6731,3.5179"
       style="fill:none;stroke:#ffffff;stroke-width:0.0762;stroke-linecap:butt;stroke-linejoin:miter;stroke-miterlimit:2.61310005;stroke-dasharray:none;stroke-opacity:1"
       id="path68" />
    <path
       d="m 159.99639,247.33761 -0.007,-0.0332 -0.0265,-0.0335 -0.0402,-0.0201 -0.0663,-0.0134 -0.0734,-0.013 -0.0868,-0.007 h -0.0998 -0.0998 l -0.10689,0.007 -0.11324,0.013 -0.10654,0.0134 -0.10654,0.0134 -0.0998,0.013 -0.0935,0.0205 -0.0797,0.0201 -0.0734,0.0198 -0.0469,0.0131 -0.0533,0.0201 -0.073,0.0268 -0.0734,0.0332 -0.0868,0.0399 -0.0864,0.0469 -0.0931,0.0466 -0.0868,0.0533 -0.0931,0.0667 -0.0868,0.0663 -0.0797,0.0804 -0.0734,0.0797 -0.0667,0.0868 -0.0466,0.0931 -0.0402,0.10653 -0.0198,0.1069 -0.007,0.22613 0.0332,0.18027 0.0667,0.13299 0.0868,0.0998 0.0998,0.067 0.11359,0.0399 0.10619,0.0201 0.10689,0.006 0.19967,-0.006 0.17992,-0.0201 0.17321,-0.0268 0.15311,-0.0402 0.13335,-0.0462 0.12665,-0.06 0.11324,-0.06 0.0998,-0.0734 0.0868,-0.0667 0.0801,-0.0797 0.0663,-0.0734 0.0533,-0.0801 0.0469,-0.0797 0.0399,-0.0801 0.0332,-0.0734 0.0201,-0.0734 0.0533,-0.19297 0.0466,-0.22013 0.0402,-0.21308 0.0332,-0.17321 v 0 0"
       style="fill:#ed192d;fill-opacity:1;fill-rule:evenodd;stroke:none;stroke-width:0.03527778"
       id="path70" />
    <path
       d="m 147.5839,250.55529 h -1.81222 l 1.51236,-8.74783 h 3.15137 l 0.29986,5.19042 2.17875,-5.19042 h 3.29142 l -1.54587,8.74783 h -1.81222 l 1.14582,-6.53556 h -0.073 l -2.71181,6.53556 h -2.0454 l -0.0134,-0.27305 -0.0466,-0.72637 -0.06,-1.03223 -0.0667,-1.18603 -0.0667,-1.19275 -0.06,-1.04598 -0.0466,-0.75953 -0.0134,-0.31962 h -0.0201 -0.0395 -0.0402 v 0 l -1.10596,6.53556 v 0 0"
       style="fill:#ffffff;fill-opacity:1;fill-rule:evenodd;stroke:none;stroke-width:0.03527778"
       id="path72" />
    <path
       d="m 147.5839,250.55529 h -1.81222 l 1.51236,-8.74783 h 3.15137 l 0.29986,5.19042 2.17875,-5.19042 h 3.29142 l -1.54587,8.74783 h -1.81222 l 1.14582,-6.53556 h -0.073 l -2.71181,6.53556 h -2.0454 v 0 l -0.0134,-0.27305 -0.0466,-0.72637 -0.06,-1.03223 -0.0667,-1.18603 -0.0667,-1.19275 -0.06,-1.04598 -0.0466,-0.75953 -0.0134,-0.31962 v 0 h -0.0201 -0.0395 -0.0402 v 0 l -1.10596,6.53556"
       style="fill:none;stroke:#ffffff;stroke-width:0.0762;stroke-linecap:butt;stroke-linejoin:miter;stroke-miterlimit:2.61310005;stroke-dasharray:none;stroke-opacity:1"
       id="path74" />
    <path
       d="m 194.6688,249.07645 -0.27305,1.47884 h -1.67217 l 0.013,-0.27305 0.007,-0.23989 v -0.17956 l 0.013,-0.0801 -0.0864,0.0998 -0.0998,0.0998 -0.11994,0.0935 -0.13335,0.0935 -0.1397,0.0864 -0.16016,0.0797 -0.16651,0.0801 -0.16651,0.0667 -0.17992,0.0533 -0.18662,0.0533 -0.18662,0.0335 -0.18627,0.0265 -0.19332,0.0134 -0.18662,0.007 -0.17992,-0.0201 -0.17991,-0.0265 -0.23989,-0.06 -0.21308,-0.0663 -0.18662,-0.0871 -0.17321,-0.0998 -0.14676,-0.10654 -0.12629,-0.11994 -0.10689,-0.12665 -0.0931,-0.13335 -0.0797,-0.1397 -0.06,-0.14676 -0.0533,-0.1464 -0.0335,-0.1464 -0.0265,-0.15346 -0.0201,-0.15311 -0.0134,-0.14675 v -0.14641 l 0.0134,-0.25999 0.0399,-0.24659 0.06,-0.23319 0.0864,-0.22648 0.10019,-0.21308 0.12664,-0.19332 0.1397,-0.18627 0.15346,-0.16686 0.17286,-0.15346 0.18027,-0.1397 0.19297,-0.12665 0.20673,-0.10654 0.20673,-0.0931 0.21978,-0.0734 0.21978,-0.06 0.22648,-0.0399 h 0.013 l 0.0335,-0.007 0.0466,-0.007 0.0667,-0.007 0.0868,-0.0134 0.0931,-0.007 0.0998,-0.0131 0.10654,-0.0138 0.11359,-0.013 0.1196,-0.0134 0.11359,-0.006 0.11324,-0.0134 0.10654,-0.007 0.0931,-0.007 0.0935,-0.006 h 0.0734 0.15981 l 0.15981,0.006 0.1531,0.007 h 0.14676 l 0.12665,0.007 0.10654,0.006 0.06,0.007 h 0.0268 l 0.013,-0.0469 0.0201,-0.11994 0.0198,-0.14006 0.0138,-0.12629 -0.0272,-0.14676 -0.0529,-0.13335 -0.0868,-0.11959 -0.0998,-0.10019 -0.11995,-0.0864 -0.14005,-0.06 -0.14676,-0.0402 -0.1598,-0.013 -0.18627,-0.007 -0.20003,-0.007 h -0.20637 l -0.21343,0.007 -0.21978,0.0134 -0.21308,0.0198 -0.21343,0.0201 -0.20638,0.0268 -0.19967,0.0265 -0.19332,0.0332 -0.17322,0.0335 -0.16016,0.0332 -0.14675,0.0402 -0.11959,0.0399 -0.0935,0.0466 -0.073,0.0399 0.46637,-1.60549 0.1464,-0.06 0.15346,-0.0533 0.15275,-0.0466 0.16052,-0.0335 0.16615,-0.0335 0.16687,-0.0265 0.17286,-0.0265 0.18027,-0.0134 0.18626,-0.0134 0.19333,-0.006 0.19332,-0.007 h 0.20638 0.20672 0.21308 l 0.22648,0.007 0.22649,0.006 0.18662,0.0134 0.20002,0.0332 0.20638,0.0469 0.21343,0.06 0.20673,0.0797 0.20602,0.0935 0.20002,0.11289 0.18662,0.12665 0.16651,0.14675 0.15311,0.16016 0.13335,0.17957 0.10019,0.20002 0.0734,0.21308 0.0462,0.22648 v 0.2533 l -0.0332,0.26635 -0.69956,3.5179 v 0 0"
       style="fill:#ffffff;fill-opacity:1;fill-rule:evenodd;stroke:none;stroke-width:0.03527778"
       id="path76" />
    <path
       d="m 194.39575,250.60221 0.0399,-0.0399 0.2734,-1.47884 -0.0801,-0.0134 -0.27305,1.47884 0.0399,-0.0399 v 0.0931 l 0.0332,-0.006 0.007,-0.0335 -0.0399,0.0399 v 0 0"
       style="fill:#ffffff;fill-opacity:1;fill-rule:evenodd;stroke:none;stroke-width:0.03527778"
       id="path78" />
    <path
       d="m 192.68301,250.55529 0.0406,0.0469 h 1.67217 v -0.0931 h -1.67217 l 0.0395,0.0462 h -0.0801 l -0.006,0.0469 h 0.0469 l -0.0406,-0.0469 v 0 0"
       style="fill:#ffffff;fill-opacity:1;fill-rule:evenodd;stroke:none;stroke-width:0.03527778"
       id="path80" />
    <path
       d="m 192.78991,249.80917 -0.06,-0.0529 -0.0268,0.10654 -0.007,0.17956 v 0.23989 l -0.0134,0.27305 h 0.0801 l 0.0134,-0.27305 0.0134,-0.23989 -0.007,-0.17956 v -0.0536 l -0.0596,-0.0529 0.0663,0.0529 v 0 0"
       style="fill:#ffffff;fill-opacity:1;fill-rule:evenodd;stroke:none;stroke-width:0.03527778"
       id="path82" />
    <path
       d="m 190.19805,250.66218 v 0 l 0.18662,0.0265 0.17991,0.0201 0.18662,-0.007 0.19332,-0.0134 0.19297,-0.0265 0.18662,-0.0335 0.18662,-0.0533 0.18627,-0.0529 0.16686,-0.067 0.17286,-0.0797 0.16016,-0.0801 0.14006,-0.0931 0.1397,-0.0931 0.11994,-0.0935 0.10654,-0.10689 0.0868,-0.0998 -0.0663,-0.0529 -0.0868,0.0998 -0.0935,0.0935 -0.11994,0.0928 -0.1263,0.0935 -0.14005,0.0801 -0.16016,0.0797 -0.15981,0.0801 -0.16651,0.0667 -0.17322,0.0536 -0.18661,0.0529 -0.18662,0.0335 -0.17957,0.0265 -0.19332,0.0134 -0.18662,0.006 -0.17992,-0.0198 -0.17321,-0.0265 v 0 l -0.0134,0.0797 v 0 0"
       style="fill:#ffffff;fill-opacity:1;fill-rule:evenodd;stroke:none;stroke-width:0.03527778"
       id="path84" />
    <path
       d="m 188.58585,248.64359 v 0 l 0.007,0.1464 0.0134,0.14676 0.0198,0.15981 0.0268,0.1531 0.0332,0.1464 0.0533,0.15346 0.0603,0.15311 0.0864,0.14005 0.0931,0.1397 0.10654,0.127 0.13335,0.12629 0.15346,0.1069 0.17321,0.10654 0.19297,0.0864 0.22013,0.0667 0.23954,0.06 0.0134,-0.0797 -0.23989,-0.06 -0.20637,-0.067 -0.17992,-0.0864 -0.17321,-0.0931 -0.14041,-0.10654 -0.11959,-0.1136 -0.10654,-0.12664 -0.0935,-0.1263 -0.073,-0.14005 -0.06,-0.1397 -0.0533,-0.14005 -0.0335,-0.14676 -0.0265,-0.15275 -0.0201,-0.14676 -0.0134,-0.14675 0.007,-0.14641 v 0 h -0.0931 v 0 0"
       style="fill:#ffffff;fill-opacity:1;fill-rule:evenodd;stroke:none;stroke-width:0.03527778"
       id="path86" />
    <path
       d="m 190.97768,246.08489 v 0 l -0.23318,0.0402 -0.22648,0.06 -0.21979,0.073 -0.21342,0.0931 -0.20673,0.10689 -0.19967,0.133 -0.17992,0.14005 -0.17322,0.16016 -0.1598,0.16616 -0.14006,0.18698 -0.13335,0.19967 -0.0998,0.21978 -0.0864,0.22683 -0.06,0.23954 -0.0399,0.25329 -0.0201,0.26 h 0.0931 l 0.007,-0.26 0.0402,-0.23988 0.0596,-0.22649 0.0868,-0.22648 0.0998,-0.20673 0.11995,-0.18627 0.1397,-0.18661 0.14675,-0.16652 0.17322,-0.14675 0.17992,-0.1397 0.18661,-0.11995 0.20638,-0.10689 0.20002,-0.0931 0.21979,-0.073 0.21307,-0.0603 0.22014,-0.0399 v 0 -0.0801 0 0"
       style="fill:#ffffff;fill-opacity:1;fill-rule:evenodd;stroke:none;stroke-width:0.03527778"
       id="path88" />
    <path
       d="m 192.35034,245.94519 v 0 h -0.0734 l -0.0935,0.013 -0.0931,0.007 -0.10654,0.006 -0.11324,0.013 -0.11359,0.007 -0.11959,0.0134 -0.1136,0.013 -0.10654,0.0134 -0.0998,0.0134 -0.0931,0.007 -0.0868,0.0134 -0.0667,0.007 -0.0533,0.006 -0.0268,0.007 h -0.013 v 0.0801 h 0.013 l 0.0402,-0.007 0.0399,-0.006 0.0667,-0.007 0.0868,-0.0134 0.0931,-0.006 0.0998,-0.0134 0.10654,-0.0134 0.1136,-0.0134 0.11959,-0.0131 0.11359,-0.007 0.11324,-0.0134 0.10654,-0.007 0.0931,-0.007 h 0.0935 0.0734 v 0 -0.0931 0 0"
       style="fill:#ffffff;fill-opacity:1;fill-rule:evenodd;stroke:none;stroke-width:0.03527778"
       id="path90" />
    <path
       d="m 193.24957,246.01822 0.0402,-0.0335 h -0.0268 l -0.06,-0.006 -0.10654,-0.007 -0.12664,-0.0134 h -0.14676 -0.15311 l -0.15981,-0.013 h -0.15981 v 0.0931 h 0.15981 0.15981 l 0.15311,0.0134 h 0.14675 0.12665 l 0.10654,0.006 0.06,0.007 h 0.0268 l 0.0395,-0.0335 -0.0395,0.0335 0.0332,0.007 0.006,-0.0402 -0.0797,-0.0134 v 0 0"
       style="fill:#ffffff;fill-opacity:1;fill-rule:evenodd;stroke:none;stroke-width:0.03527778"
       id="path92" />
    <path
       d="m 193.31625,245.59206 h -0.007 l -0.007,0.1263 -0.0198,0.13335 -0.0201,0.11994 -0.0134,0.0466 0.0797,0.0134 0.0134,-0.0469 0.0201,-0.11959 0.0201,-0.14676 0.0198,-0.12629 h -0.006 -0.0801 v 0 0"
       style="fill:#ffffff;fill-opacity:1;fill-rule:evenodd;stroke:none;stroke-width:0.03527778"
       id="path94" />
    <path
       d="m 192.52321,244.93237 v 0.007 l 0.15345,0.007 0.1397,0.0399 0.13335,0.06 0.11325,0.0801 0.0931,0.0931 0.0804,0.11324 0.0533,0.11994 0.0265,0.14006 h 0.0801 l -0.0268,-0.15311 -0.0533,-0.14676 -0.0931,-0.12664 -0.10654,-0.10654 -0.127,-0.0931 -0.14641,-0.0603 -0.1531,-0.0399 -0.16686,-0.0198 v 0.007 0.0797 0 0"
       style="fill:#ffffff;fill-opacity:1;fill-rule:evenodd;stroke:none;stroke-width:0.03527778"
       id="path96" />
    <path
       d="m 189.66535,245.25234 0.0663,0.0399 0.0667,-0.0335 0.0868,-0.0466 0.11324,-0.0399 0.1464,-0.0399 0.15981,-0.0335 0.17322,-0.0332 0.19332,-0.0335 0.19332,-0.0265 0.20638,-0.0268 0.21343,-0.0198 0.21307,-0.0201 0.21979,-0.0134 h 0.21343 0.20637 0.20003 l 0.18626,0.007 v -0.0797 l -0.18626,-0.007 -0.20003,-0.0134 h -0.20637 l -0.21343,0.0134 -0.21978,0.013 -0.21308,0.0201 -0.21343,0.0201 -0.20638,0.0265 -0.20672,0.0268 -0.19333,0.0332 -0.17286,0.0335 -0.16016,0.0332 -0.1464,0.0399 -0.12665,0.0402 -0.10019,0.0466 -0.0797,0.0466 0.0667,0.0399 -0.0797,-0.013 v 0 0"
       style="fill:#ffffff;fill-opacity:1;fill-rule:evenodd;stroke:none;stroke-width:0.03527778"
       id="path98" />
    <path
       d="m 190.15818,243.61333 -0.0268,0.0332 -0.46602,1.60585 0.0797,0.013 0.46637,-1.60585 -0.0268,0.0335 -0.0265,-0.0797 -0.0201,0.006 -0.007,0.0268 0.0268,-0.0332 v 0 0"
       style="fill:#ffffff;fill-opacity:1;fill-rule:evenodd;stroke:none;stroke-width:0.03527778"
       id="path100" />
    <path
       d="m 193.12293,243.30677 v 0 l -0.22649,-0.0134 -0.22648,-0.007 h -0.21308 -0.20672 -0.20638 l -0.19332,0.0134 -0.19333,0.007 -0.18626,0.0134 -0.18027,0.013 -0.17992,0.0268 -0.16616,0.0265 -0.16686,0.0335 -0.15981,0.0335 -0.15981,0.0466 -0.15346,0.0529 -0.1464,0.0603 0.0265,0.0797 0.14676,-0.06 0.1531,-0.0533 0.14676,-0.0466 0.15981,-0.0332 0.16686,-0.0335 0.16616,-0.0265 0.16651,-0.0268 0.18027,-0.0134 0.18627,-0.0134 0.19332,-0.007 h 0.19332 0.20638 0.20673 0.21307 l 0.22649,0.007 h 0.22648 v 0 -0.0797 0 0"
       style="fill:#ffffff;fill-opacity:1;fill-rule:evenodd;stroke:none;stroke-width:0.03527778"
       id="path102" />
    <path
       d="m 195.40822,245.56525 v 0 l 0.0335,-0.27305 v -0.25329 l -0.0466,-0.23319 -0.0734,-0.21978 -0.10654,-0.20638 -0.1337,-0.18662 -0.15981,-0.16651 -0.16651,-0.14675 -0.19297,-0.12665 -0.20002,-0.11994 -0.21308,-0.0931 -0.20673,-0.0801 -0.21978,-0.06 -0.20637,-0.0466 -0.20673,-0.0332 -0.18662,-0.0134 v 0.0797 l 0.18662,0.0134 0.19332,0.0335 0.20673,0.0466 0.20602,0.06 0.20673,0.0797 0.20002,0.0935 0.19967,0.10654 0.17992,0.12664 0.16687,0.14676 0.1464,0.1531 0.13335,0.17322 0.0931,0.19332 0.073,0.20637 0.0469,0.21979 v 0.25329 l -0.0335,0.26 v 0 l 0.0801,0.013 v 0 0"
       style="fill:#ffffff;fill-opacity:1;fill-rule:evenodd;stroke:none;stroke-width:0.03527778"
       id="path104" />
    <path
       d="m 194.70902,249.0835 v 0 l 0.6992,-3.51825 -0.0801,-0.013 -0.6992,3.5179 v 0 l 0.0801,0.0134 v 0 0"
       style="fill:#ffffff;fill-opacity:1;fill-rule:evenodd;stroke:none;stroke-width:0.03527778"
       id="path106" />
    <path
       d="m 193.05625,247.33761 -0.013,-0.0399 -0.0265,-0.0335 -0.0469,-0.0198 -0.0667,-0.0201 -0.0734,-0.007 -0.0864,-0.007 h -0.10019 l -0.0998,0.007 -0.10654,0.0134 -0.10689,0.0134 -0.10619,0.013 -0.10019,0.0134 -0.0998,0.0201 -0.0868,0.0134 -0.0864,0.0198 -0.0667,0.0134 -0.0466,0.007 -0.0533,0.0201 -0.0667,0.0198 -0.0734,0.0265 -0.0864,0.0402 -0.0801,0.0399 -0.0931,0.0469 -0.0868,0.06 -0.0868,0.06 -0.0864,0.0734 -0.0734,0.073 -0.0734,0.0868 -0.0596,0.0928 -0.0469,0.10054 -0.0399,0.10618 -0.0198,0.1136 -0.007,0.22613 0.0332,0.18027 0.0533,0.13299 0.0801,0.0998 0.0998,0.067 0.11325,0.0399 0.11324,0.0201 0.11324,0.006 0.20002,-0.006 0.18627,-0.0201 0.17357,-0.0335 0.1531,-0.0466 0.14676,-0.0533 0.12665,-0.06 0.11959,-0.0667 0.10654,-0.0797 0.0935,-0.0737 0.0797,-0.0864 0.0734,-0.0801 0.06,-0.0864 0.0466,-0.0797 0.0335,-0.0801 0.0265,-0.0801 0.0201,-0.073 0.0268,-0.18697 0.0335,-0.19297 0.0265,-0.18662 0.013,-0.16651 v 0 0"
       style="fill:#f9ab1e;fill-opacity:1;fill-rule:evenodd;stroke:none;stroke-width:0.03527778"
       id="path108" />
    <path
       d="m 206.78142,249.64301 0.0134,-0.15346 0.0533,-0.17992 0.0931,-0.15981 0.1136,-0.1397 0.1397,-0.11359 0.15981,-0.0797 0.17321,-0.0536 0.18662,-0.0198 0.18662,0.0198 0.17321,0.0536 0.15981,0.0797 0.14005,0.11359 0.11325,0.1397 0.0935,0.15981 0.0529,0.17992 0.0134,0.15346 h -0.19968 l -0.007,-0.11995 -0.0399,-0.14675 -0.0663,-0.133 -0.0868,-0.11359 -0.10654,-0.0931 -0.127,-0.0667 -0.1464,-0.0466 -0.1531,-0.0138 -0.15311,0.0138 -0.14675,0.0466 -0.1263,0.0667 -0.10689,0.0931 -0.0864,0.11359 -0.067,0.133 -0.0399,0.14675 -0.013,0.11995 h -0.19332 v 0 0"
       style="fill:#ffffff;fill-opacity:1;fill-rule:evenodd;stroke:none;stroke-width:0.03527778"
       id="path110" />
    <path
       d="m 207.38079,249.64301 v -0.3997 h 0.36654 l 0.0801,0.006 0.0734,0.0134 0.0533,0.0201 0.0466,0.0265 0.0335,0.0402 0.0265,0.0399 0.0134,0.0466 0.007,0.0466 -0.007,0.06 -0.0134,0.0466 -0.0198,0.0399 -0.0138,0.0138 h -0.27976 l 0.0268,-0.007 0.0469,-0.007 0.0399,-0.013 0.0332,-0.0134 0.0268,-0.0198 0.0134,-0.0201 0.013,-0.0335 v -0.0466 l -0.007,-0.0332 -0.0134,-0.0265 -0.0198,-0.0138 -0.0201,-0.0134 -0.0335,-0.006 -0.0328,-0.007 h -0.0335 -0.0402 -0.19967 v 0.26 h -0.16686 v 0 0"
       style="fill:#ffffff;fill-opacity:1;fill-rule:evenodd;stroke:none;stroke-width:0.03527778"
       id="path112" />
    <path
       d="m 206.78142,249.64301 -0.007,0.0399 0.0201,0.19332 0.0533,0.17956 0.0931,0.16017 0.1136,0.13335 0.1397,0.11324 0.15981,0.0864 0.17321,0.0533 0.18662,0.0201 0.18662,-0.0201 0.17321,-0.0533 0.15981,-0.0864 0.14005,-0.11324 0.11325,-0.13335 0.0935,-0.16017 0.0529,-0.17956 0.0201,-0.19332 -0.007,-0.0399 h -0.19968 l 0.006,0.0399 -0.0134,0.15981 -0.0399,0.14675 -0.0663,0.1263 -0.0868,0.11324 -0.10654,0.0935 -0.127,0.073 -0.1464,0.0469 -0.1531,0.013 -0.15311,-0.013 -0.14675,-0.0469 -0.1263,-0.073 -0.10689,-0.0935 -0.0864,-0.11324 -0.067,-0.1263 -0.0399,-0.14675 -0.013,-0.15981 v -0.0399 h -0.19332 v 0 0"
       style="fill:#ffffff;fill-opacity:1;fill-rule:evenodd;stroke:none;stroke-width:0.03527778"
       id="path114" />
    <path
       d="m 207.38079,249.64301 v 0.4064 h 0.16687 v -0.33302 h 0.16651 l 0.20002,0.33302 h 0.133 l -0.19967,-0.33302 h 0.0466 l 0.0466,-0.0138 0.0402,-0.0134 0.0328,-0.0265 0.0134,-0.0198 h -0.27976 l -0.0332,0.006 h -0.16651 v -0.006 h -0.16686 v 0 0"
       style="fill:#ffffff;fill-opacity:1;fill-rule:evenodd;stroke:none;stroke-width:0.03527778"
       id="path116" />
    <path
       d="m 207.71417,250.45546 v 0 l 0.1531,-0.013 0.14641,-0.0469 0.127,-0.073 0.10654,-0.0935 0.0868,-0.11325 0.0663,-0.12629 0.0399,-0.14676 0.0134,-0.1598 v 0 l -0.0134,-0.15981 -0.0399,-0.14676 -0.0663,-0.133 -0.0868,-0.11359 -0.10654,-0.0931 -0.127,-0.0667 -0.14641,-0.0466 -0.1531,-0.0138 v 0 l -0.15311,0.0138 -0.14675,0.0466 -0.1263,0.0667 -0.10689,0.0931 -0.0864,0.11359 -0.067,0.133 -0.0399,0.14676 -0.013,0.15981 v 0 l 0.013,0.1598 0.0399,0.14676 0.067,0.12629 0.0864,0.11325 0.10689,0.0935 0.1263,0.073 0.14675,0.0469 0.15311,0.013 m 0,-0.8061 v 0 l 0.06,-0.013 0.0469,-0.007 0.0399,-0.013 0.0332,-0.0134 0.0268,-0.0198 0.0134,-0.0201 0.013,-0.0335 v -0.0466 0 l -0.007,-0.0332 -0.0134,-0.0265 -0.0198,-0.0138 -0.0201,-0.0134 -0.0335,-0.006 -0.0328,-0.007 h -0.0335 -0.0402 -0.19967 v 0.26635 h 0.16651 m -0.16651,0.40005 h -0.16687 v -0.8061 h 0.36654 v 0 l 0.0801,0.006 0.0734,0.0134 0.0533,0.0201 0.0466,0.0265 0.0335,0.0402 0.0265,0.0399 0.0134,0.0466 0.007,0.0466 v 0 l -0.007,0.06 -0.0134,0.0466 -0.0198,0.0399 -0.0272,0.0335 -0.0328,0.0265 -0.0402,0.0134 -0.0466,0.0138 h -0.0466 l 0.19967,0.33302 h -0.133 l -0.20002,-0.33302 h -0.16651 v 0.33302 m -0.7729,-0.3666 v 0 l 0.0201,-0.19332 0.0533,-0.17992 0.0931,-0.1598 0.11359,-0.1397 0.1397,-0.1136 0.15981,-0.0797 0.17322,-0.0536 0.18662,-0.0198 v 0 l 0.18661,0.0198 0.17322,0.0536 0.15981,0.0797 0.14005,0.1136 0.11324,0.1397 0.0935,0.1598 0.0529,0.17992 0.0201,0.19332 v 0 l -0.0201,0.19333 -0.0529,0.17956 -0.0935,0.16016 -0.11324,0.13335 -0.14005,0.11324 -0.15981,0.0864 -0.17322,0.0533 -0.18661,0.0201 v 0 l -0.18662,-0.0201 -0.17322,-0.0533 -0.15981,-0.0864 -0.1397,-0.11324 -0.11359,-0.13335 -0.0931,-0.16016 -0.0533,-0.17956 -0.0201,-0.19333"
       style="fill:none;stroke:#ffffff;stroke-width:0.0762;stroke-linecap:butt;stroke-linejoin:miter;stroke-miterlimit:2.61310005;stroke-dasharray:none;stroke-opacity:1"
       id="path118" />
    <path
       d="m 195.16833,250.55529 h 1.8789 v 0 l 0.67345,-3.79095 0.0261,-0.1464 0.0402,-0.14676 0.0399,-0.1464 0.0533,-0.1464 0.0667,-0.14676 0.0801,-0.1397 0.0864,-0.13335 0.10689,-0.12665 0.11995,-0.11324 0.13264,-0.10654 0.15346,-0.10018 0.17321,-0.0797 0.19332,-0.0667 0.21343,-0.0533 0.23319,-0.0402 0.25965,-0.013 h 0.0935 0.0529 0.0201 v 0 l 0.29986,-1.71239 -0.18662,0.0134 -0.17992,0.0198 -0.16651,0.0335 -0.16016,0.0466 -0.1464,0.0533 -0.1397,0.0667 -0.13335,0.0734 -0.1263,0.0801 -0.11994,0.0931 -0.1136,0.0935 -0.10654,0.10654 -0.10654,0.10654 -0.0998,0.11324 -0.0998,0.1263 -0.10018,0.11994 -0.0931,0.13335 0.19967,-1.20579 h -1.87219 l -1.24601,7.13528 v 0 0 0"
       style="fill:#ffffff;fill-opacity:1;fill-rule:evenodd;stroke:none;stroke-width:0.03527778"
       id="path120" />
    <path
       d="m 195.16833,250.55529 h 1.8789 v 0 l 0.67345,-3.79095 v 0 l 0.0261,-0.1464 0.0402,-0.14676 0.0399,-0.1464 0.0533,-0.1464 0.0667,-0.14676 0.0801,-0.1397 0.0864,-0.13335 0.10689,-0.12665 0.11995,-0.11324 0.13264,-0.10654 0.15346,-0.10018 0.17321,-0.0797 0.19332,-0.0667 0.21343,-0.0533 0.23319,-0.0402 0.25965,-0.013 v 0 h 0.0935 0.0529 0.0201 v 0 l 0.29986,-1.71239 v 0 l -0.18662,0.0134 -0.17992,0.0198 -0.16651,0.0335 -0.16016,0.0466 -0.1464,0.0533 -0.1397,0.0667 -0.13335,0.0734 -0.1263,0.0801 -0.11994,0.0931 -0.1136,0.0935 -0.10654,0.10654 -0.10654,0.10654 -0.0998,0.11324 -0.0998,0.1263 -0.10018,0.11994 -0.0931,0.13335 0.19967,-1.20579 h -1.87219 l -1.24601,7.13528 v 0"
       style="fill:none;stroke:#ffffff;stroke-width:0.0762;stroke-linecap:butt;stroke-linejoin:miter;stroke-miterlimit:2.61310005;stroke-dasharray:none;stroke-opacity:1"
       id="path122" />
    <path
       d="m 177.52592,250.55529 h 1.91205 l 0.63959,-3.79095 0.0265,-0.1464 0.0335,-0.1397 0.0335,-0.14005 0.0462,-0.13335 0.0536,-0.133 0.0663,-0.12665 0.0801,-0.1203 0.0931,-0.11288 0.10689,-0.10019 0.11994,-0.0995 0.14641,-0.0801 0.15981,-0.0734 0.18697,-0.0603 0.20602,-0.0529 0.22684,-0.0335 0.25964,-0.0198 h 0.0201 l 0.0268,0.006 0.0332,0.007 h 0.0335 l 0.0332,0.007 0.0268,0.007 0.0198,0.007 h 0.007 l 0.007,-0.0268 0.0201,-0.0797 0.0265,-0.11995 0.0335,-0.1464 0.0466,-0.17357 0.0466,-0.18662 0.06,-0.18662 0.06,-0.18626 0.0533,-0.12665 0.0667,-0.12665 0.0667,-0.12629 0.0663,-0.1136 0.0603,-0.0998 0.0466,-0.0801 0.0335,-0.0466 0.013,-0.0201 h -0.007 l -0.0268,-0.006 -0.0332,-0.007 -0.0466,-0.007 h -0.0466 l -0.0536,-0.007 -0.0466,-0.007 h -0.0462 l -0.20673,0.0134 -0.18662,0.0198 -0.17321,0.0335 -0.15981,0.0402 -0.15346,0.0529 -0.1397,0.0667 -0.12664,0.0667 -0.11995,0.0801 -0.11359,0.0864 -0.10619,0.0998 -0.10019,0.10019 -0.0998,0.11324 -0.0998,0.11325 -0.0935,0.12664 -0.0998,0.133 -0.0998,0.13335 0.23989,-1.20579 h -1.91206 l -1.24601,7.13528 v 0 0 0"
       style="fill:#ffffff;fill-opacity:1;fill-rule:evenodd;stroke:none;stroke-width:0.03527778"
       id="path124" />
    <path
       d="m 177.52592,250.55529 h 1.91205 l 0.63959,-3.79095 v 0 l 0.0265,-0.1464 0.0335,-0.1397 0.0335,-0.14005 0.0462,-0.13335 0.0536,-0.133 0.0663,-0.12665 0.0801,-0.1203 0.0931,-0.11288 0.10689,-0.10019 0.11994,-0.0995 0.14641,-0.0801 0.15981,-0.0734 0.18697,-0.0603 0.20602,-0.0529 0.22684,-0.0335 0.25964,-0.0198 v 0 h 0.0201 l 0.0268,0.006 0.0332,0.007 h 0.0335 l 0.0332,0.007 0.0268,0.007 0.0198,0.007 h 0.007 v 0 l 0.007,-0.0268 0.0201,-0.0797 0.0265,-0.11995 0.0335,-0.1464 0.0466,-0.17357 0.0466,-0.18662 0.06,-0.18662 0.06,-0.18626 v 0 l 0.0533,-0.12665 0.0667,-0.12665 0.0667,-0.12629 0.0663,-0.1136 0.0603,-0.0998 0.0466,-0.0801 0.0335,-0.0466 0.013,-0.0201 v 0 h -0.007 l -0.0268,-0.006 -0.0332,-0.007 -0.0466,-0.007 h -0.0466 l -0.0536,-0.007 -0.0466,-0.007 h -0.0462 v 0 l -0.20673,0.0134 -0.18662,0.0198 -0.17321,0.0335 -0.15981,0.0402 -0.15346,0.0529 -0.1397,0.0667 -0.12664,0.0667 -0.11995,0.0801 -0.11359,0.0864 -0.10619,0.0998 -0.10019,0.10019 -0.0998,0.11324 -0.0998,0.11325 -0.0935,0.12664 -0.0998,0.133 -0.0998,0.13335 0.23989,-1.20579 h -1.91206 l -1.24601,7.13528 v 0"
       style="fill:none;stroke:#ffffff;stroke-width:0.0762;stroke-linecap:butt;stroke-linejoin:miter;stroke-miterlimit:2.61310005;stroke-dasharray:none;stroke-opacity:1"
       id="path126" />
    <path
       d="m 206.79483,257.56498 v -0.0272 l 0.0533,-0.17321 0.0931,-0.15275 0.11359,-0.13335 0.1397,-0.10689 0.15981,-0.0801 0.17321,-0.0462 0.18662,-0.0201 0.18662,0.0201 0.17322,0.0462 0.1598,0.0801 0.14006,0.10689 0.11324,0.13335 0.0935,0.15275 0.0529,0.17321 v 0.0272 h -0.19333 l -0.0399,-0.14005 -0.0663,-0.12665 -0.0868,-0.11359 -0.10654,-0.0928 -0.127,-0.0734 -0.1464,-0.0469 -0.1531,-0.013 -0.15311,0.013 -0.14675,0.0469 -0.1263,0.0734 -0.10689,0.0928 -0.0864,0.11359 -0.067,0.12665 -0.0399,0.14005 h -0.19297 v 0 0"
       style="fill:#f9ab1e;fill-opacity:1;fill-rule:evenodd;stroke:none;stroke-width:0.03527778"
       id="path128" />
    <path
       d="m 207.38079,257.56498 v -0.23353 h 0.44662 l 0.0734,0.0134 0.0533,0.0134 0.0466,0.0265 0.0335,0.0335 0.0265,0.0399 0.0134,0.0469 0.007,0.06 h -0.13335 v -0.0335 l -0.007,-0.0335 -0.0134,-0.0265 -0.0198,-0.0134 -0.0201,-0.013 -0.0335,-0.007 -0.0328,-0.006 h -0.0335 -0.0402 -0.19967 v 0.13335 h -0.16687 v 0 0"
       style="fill:#f9ab1e;fill-opacity:1;fill-rule:evenodd;stroke:none;stroke-width:0.03527778"
       id="path130" />
    <path
       d="m 206.77472,257.71139 0.0201,-0.14641 h 0.19297 v 0.006 l -0.013,0.14006 h -0.20002 v 0 0"
       style="fill:#f9ab1e;fill-opacity:1;fill-rule:evenodd;stroke:none;stroke-width:0.03527778"
       id="path132" />
    <path
       d="m 207.38079,257.71139 v -0.14641 h 0.16687 v 0.133 h 0.16651 l 0.06,-0.0134 0.0469,-0.007 0.0399,-0.013 0.0332,-0.0134 0.0268,-0.0201 0.0134,-0.0201 0.013,-0.0332 v -0.013 h 0.13335 v 0 l -0.007,0.0462 -0.0134,0.0402 -0.0198,0.0332 -0.0272,0.0268 h -0.63289 v 0 0"
       style="fill:#f9ab1e;fill-opacity:1;fill-rule:evenodd;stroke:none;stroke-width:0.03527778"
       id="path134" />
    <path
       d="m 208.45359,257.71139 -0.0134,-0.14006 v -0.006 h 0.19332 l 0.0201,0.14641 h -0.20002 v 0 0"
       style="fill:#f9ab1e;fill-opacity:1;fill-rule:evenodd;stroke:none;stroke-width:0.03527778"
       id="path136" />
    <path
       d="m 206.77472,257.71139 v 0.0198 l 0.0201,0.19332 0.0533,0.17992 0.0931,0.15981 0.11359,0.14005 0.1397,0.11324 0.15981,0.0797 0.17322,0.0536 0.18662,0.0198 0.18661,-0.0198 0.17322,-0.0536 0.15981,-0.0797 0.14005,-0.11324 0.11324,-0.14005 0.0935,-0.15981 0.0529,-0.17992 0.0201,-0.19332 v -0.0198 h -0.20002 v 0.0198 l -0.0134,0.15981 -0.0399,0.14675 -0.0663,0.12665 -0.0868,0.11324 -0.10654,0.0935 -0.127,0.073 -0.14641,0.0466 -0.1531,0.0134 -0.15311,-0.0134 -0.14675,-0.0466 -0.1263,-0.073 -0.10689,-0.0935 -0.0864,-0.11324 -0.067,-0.12665 -0.0399,-0.14675 -0.013,-0.15981 v -0.0198 h -0.20003 v 0 0"
       style="fill:#f9ab1e;fill-opacity:1;fill-rule:evenodd;stroke:none;stroke-width:0.03527778"
       id="path138" />
    <path
       d="m 207.38079,257.71139 v 0.38629 h 0.16687 v -0.33302 h 0.16651 l 0.20002,0.33302 h 0.133 l -0.19967,-0.33302 h 0.0466 l 0.0466,-0.0134 0.0402,-0.0134 0.0328,-0.0265 v 0 h -0.63288 v 0 0"
       style="fill:#f9ab1e;fill-opacity:1;fill-rule:evenodd;stroke:none;stroke-width:0.03527778"
       id="path140" />
  </g>
</svg>
